<svg xmlns="http://www.w3.org/2000/svg" width="365" height="153" viewBox="0, 0, 365, 153"><g fill="#8DC23E"><path d="M-1.416 94.473l-.718-.984 64.25-27.12 26.423 51.417 39.155-62.187 49.405-16.024 35.714 26.792 38.176-42.165 45.184 62.186 29.469-22.709 41.911 16.736-.193 1.195-41.4-16.641-30.066 23.166-45.228-62.246-37.885 41.971-35.897-26.936-48.491 15.725-39.632 62.752-2.153-2.315-24.573-47.578.103-1.657-63.554 26.622"/><path d="M65.771 67.113a3.654 3.654 0 0 1-3.649 3.666c-2.014 0-3.645-1.64-3.645-3.666 0-2.021 1.631-3.663 3.645-3.663a3.655 3.655 0 0 1 3.649 3.663M92.221 119.052c0 2.025-1.634 3.667-3.648 3.667a3.657 3.657 0 0 1-3.65-3.667 3.651 3.651 0 0 1 3.65-3.66 3.653 3.653 0 0 1 3.648 3.66M131.608 56.277a3.655 3.655 0 0 1-3.646 3.662 3.659 3.659 0 0 1-3.654-3.662 3.658 3.658 0 0 1 3.654-3.665 3.654 3.654 0 0 1 3.646 3.665M180.415 40.246a3.652 3.652 0 0 1-3.65 3.66 3.655 3.655 0 0 1-3.651-3.66 3.66 3.66 0 0 1 3.651-3.663 3.658 3.658 0 0 1 3.65 3.663M216.146 66.959a3.653 3.653 0 0 1-3.646 3.664 3.657 3.657 0 0 1-3.654-3.664 3.659 3.659 0 0 1 3.654-3.663 3.655 3.655 0 0 1 3.646 3.663M254.457 25.047a3.661 3.661 0 0 1-3.651 3.667c-2.012 0-3.644-1.642-3.644-3.667a3.652 3.652 0 0 1 3.644-3.66 3.657 3.657 0 0 1 3.651 3.66M299.472 87.334a3.658 3.658 0 0 1-3.65 3.663 3.658 3.658 0 0 1-3.65-3.663 3.654 3.654 0 0 1 3.65-3.658 3.654 3.654 0 0 1 3.65 3.658M329.426 64.328c0 2.018-1.63 3.66-3.649 3.66a3.656 3.656 0 0 1-3.652-3.66 3.659 3.659 0 0 1 3.652-3.666 3.657 3.657 0 0 1 3.649 3.666"/><path d="M212.458 135.824l-36.069-45.118-48.608-15.62-29.842-11.729-35.162-46.211-.348-1.236L20.54 118.053a.6.6 0 0 1-.755.3l-.01-.005a.602.602 0 0 1-.326-.825L61.821 14.102l36.656 48.174 29.707 11.668 48.964 15.731.123.171 35.274 43.954 47.784-51.016 35.499 33.076 29.534-27.17 41.621-52.485.946.758-41.684 52.554-30.423 27.992-35.369-32.95-47.995 51.265"/><path d="M65.771 15.003a3.65 3.65 0 0 1-3.649 3.66 3.65 3.65 0 0 1-3.645-3.66c0-2.02 1.631-3.664 3.645-3.664a3.656 3.656 0 0 1 3.649 3.664M101.808 62.793c0 2.026-1.635 3.668-3.649 3.668a3.656 3.656 0 0 1-3.649-3.668c0-2.023 1.63-3.66 3.649-3.66a3.654 3.654 0 0 1 3.649 3.66M132.416 74.984a3.66 3.66 0 0 1-3.651 3.662 3.66 3.66 0 0 1-3.651-3.662 3.659 3.659 0 0 1 3.651-3.665 3.659 3.659 0 0 1 3.651 3.665M180.528 90.166a3.655 3.655 0 0 1-3.644 3.659 3.654 3.654 0 0 1-3.656-3.659 3.656 3.656 0 0 1 3.656-3.668c2.007 0 3.644 1.637 3.644 3.668M216.146 134.812a3.652 3.652 0 0 1-3.646 3.66 3.655 3.655 0 0 1-3.654-3.66 3.66 3.66 0 0 1 3.654-3.666c2.014 0 3.646 1.642 3.646 3.666M264.043 84.478a3.658 3.658 0 0 1-3.651 3.664c-2.012 0-3.643-1.64-3.643-3.664 0-2.022 1.631-3.662 3.643-3.662a3.658 3.658 0 0 1 3.651 3.662M299.472 115.872c0 2.02-1.636 3.66-3.65 3.66a3.657 3.657 0 0 1-3.65-3.66 3.657 3.657 0 0 1 3.65-3.662 3.657 3.657 0 0 1 3.65 3.662M329.426 88.142a3.656 3.656 0 0 1-3.649 3.666 3.657 3.657 0 0 1-3.652-3.666 3.655 3.655 0 0 1 3.652-3.664 3.653 3.653 0 0 1 3.649 3.664"/></g></svg>