<svg width="593" height="145" viewBox="0 0 593 145" xmlns="http://www.w3.org/2000/svg"><title>square</title><g fill="#242627" fill-rule="evenodd"><path d="M121.077.446H24.79C11.552.446.715 11.28.715 24.521v96.288c0 13.235 10.837 24.066 24.075 24.066h96.287c13.238 0 24.075-10.83 24.075-24.066V24.52c0-13.242-10.837-24.075-24.075-24.075zm-2.188 110.522c0 4.207-3.446 7.642-7.657 7.642H34.63c-4.21 0-7.655-3.435-7.655-7.642V34.366c0-4.209 3.446-7.654 7.655-7.654h76.603c4.211 0 7.657 3.445 7.657 7.654v76.602zm-26.255-22.99a4.385 4.385 0 0 1-4.372 4.379H57.626a4.381 4.381 0 0 1-4.372-4.379V57.345a4.383 4.383 0 0 1 4.372-4.374h30.636a4.387 4.387 0 0 1 4.372 4.374v30.633zM212 120.086c-8.565 0-16.796-3.3-22.595-9.092-5.176-5.163-8.045-11.874-8.045-18.893h8.675c0 4.701 1.946 9.234 5.496 12.767 4.179 4.16 10.188 6.556 16.475 6.556h.072c12.103 0 21.936-8.464 21.936-18.867-.007-7.805-4.324-13.999-25.324-18.861-8.547-1.978-14.309-4.625-18.149-8.325-4.081-3.958-6.081-9.228-6.081-16.104 0-13.581 12.175-24.637 27.143-24.637 7.176 0 13.936 2.468 19.048 6.953 5.271 4.629 8.185 10.875 8.185 17.584h-8.675c0-8.755-8.318-15.869-18.558-15.869-10.019 0-18.477 7.316-18.477 15.969 0 7.911 2.716 12.559 17.525 15.988 15.814 3.653 32 9.764 32.04 27.296 0 7.461-3.236 14.435-9.11 19.639-5.755 5.097-13.39 7.896-21.496 7.896H212zM314.126 144.747v-37.966h-.244c-5.626 8.618-15.32 13.05-25.51 13.05-19.636 0-35.216-14.746-35.216-34.5 0-19.645 15.947-34.257 35.215-34.257 10.19 0 19.885 4.434 25.51 13.179h.245V52.749h8.388v91.998h-8.388zM288.37 58.623c-15.574 0-26.816 11.613-26.816 27.067 0 15.337 11.488 26.594 26.816 26.594 14.862 0 26.238-12.105 26.238-26.721 0-14.61-11.376-26.94-26.238-26.94zM468.588 118.27v-11.496h-.244c-5.755 8.614-15.33 13.045-25.515 13.045-19.63 0-35.211-14.728-35.211-34.488 0-19.644 15.926-34.264 35.211-34.264 10.307 0 19.887 4.322 25.515 13.18h.244V52.754h8.373v65.516h-8.373zm-25.759-59.648c-15.56 0-26.819 11.614-26.819 27.07 0 15.328 11.497 26.593 26.819 26.593 14.853 0 26.227-12.107 26.227-26.72 0-14.61-11.374-26.943-26.227-26.943zM502.092 79.94v38.335h-8.395V52.746h8.395v9.464h.222c3.605-8.384 9.95-10.543 18.454-11.141v8.874c-11.497.954-18.676 8.257-18.676 19.997M592.428 88.568h-59.647c.602 12.934 12.589 23.717 25.407 23.717 10.057 0 19.883-5.755 23.477-15.456h8.85c-4.777 13.649-17.711 22.99-32.213 22.99-18.92 0-34.132-15.446-34.132-34.256 0-18.678 15.212-34.497 34.018-34.497 19.17 0 34.382 16.177 34.382 35.108 0 .827-.142 1.548-.142 2.394m-34.126-29.95c-13.064 0-23.479 9.581-25.52 22.4h51.15c-2.157-12.819-12.451-22.4-25.63-22.4M387.576 118.354v-10.237h-.238c-3.855 8.072-12.398 11.804-21.066 11.804-8.547 0-17.21-3.007-22.631-9.864-4.686-5.901-5.768-13.846-5.768-21.18v-36.35h8.42v36.222c0 13.6 4.93 23.596 19.979 23.596 5.53 0 9.864-1.455 13.96-5.305 5.783-5.524 6.856-12.038 6.856-19.73V52.525h8.43v65.828h-7.942z"/></g></svg>