<svg width="364" height="71" viewBox="0 0 364 71" xmlns="http://www.w3.org/2000/svg"><title>zendesk</title><g fill-rule="nonzero" fill="#03363D"><path d="M241.91 60.63a18.22 18.22 0 0 0 12.95-5l6.42 6.93c-4.24 4.36-10.12 7.6-19.26 7.6-15.67 0-25.79-10.39-25.79-24.46a24 24 0 0 1 24.37-24.47c15.56 0 24.38 11.84 23.61 28.26h-36.78c1.3 6.82 6.09 11.17 14.47 11.17l.01-.03zm11.2-18.97c-1-6.37-4.79-11.06-12.41-11.06-7.07 0-12 4-13.27 11.06h25.68zM.4 60.12l28.31-28.76H1.07v-9.02h40.76v9.21L13.52 60.3h28.69v9.03H.4zM74 60.63a18.22 18.22 0 0 0 12.95-5l6.42 6.93c-4.24 4.36-10.12 7.6-19.26 7.6-15.67 0-25.79-10.39-25.79-24.46a24 24 0 0 1 24.37-24.47c15.56 0 24.38 11.84 23.61 28.26H59.52c1.3 6.82 6.09 11.17 14.47 11.17l.01-.03zm11.2-18.97c-1-6.37-4.79-11.06-12.41-11.06-7.07 0-12 4-13.27 11.06H85.2zM157.42 45.69c0-15 11.23-24.44 23.59-24.44a20.34 20.34 0 0 1 15.67 7.05V.58h10v68.61h-10V62.7a20.1 20.1 0 0 1-15.76 7.42c-12 0-23.5-9.49-23.5-24.43m39.82-.09c-.22-8.186-6.996-14.665-15.183-14.518-8.187.148-14.726 6.866-14.651 15.054.075 8.189 6.735 14.787 14.924 14.784 8.59 0 14.91-6.86 14.91-15.32M270.72 59.22l9.06-4.7a13.44 13.44 0 0 0 12.08 6.86c5.66 0 8.59-2.91 8.59-6.2 0-3.76-5.47-4.61-11.42-5.83-8-1.69-16.33-4.33-16.33-14 0-7.43 7.07-14.29 18.21-14.19 8.77 0 15.29 3.48 19 9.11l-8.4 4.61a12.19 12.19 0 0 0-10.57-5.36c-5.38 0-8.12 2.63-8.12 5.64 0 3.38 4.34 4.32 11.14 5.83 7.74 1.69 16.51 4.23 16.51 14 0 6.48-5.66 15.22-19.06 15.13-9.81 0-16.7-3.95-20.67-10.9M337.62 48.32l-7.93 8.65v12.21h-10V.57h10V45.5l21.23-23.31h12.18L344.69 42.3l18.88 26.88h-11.32zM127.19 21.24c-11.89 0-21.85 7.71-21.85 20.49v27.45h10.19V43c0-7.71 4.43-12.32 12-12.32s11.33 4.61 11.33 12.32v26.18H149V41.73c0-12.78-10-20.49-21.85-20.49"/></g></svg>