<svg width="600" height="201" viewBox="0 0 600 201" xmlns="http://www.w3.org/2000/svg"><title>general-assembly</title><g fill="none" fill-rule="evenodd"><path d="M249.345 11.194c3.486 0 6.623.349 9.411 1.395 2.789 1.045 4.88 2.44 6.623 4.182 1.743 1.743 2.788 4.183 3.834 6.623.697 2.44 1.046 5.228.697 8.017l-14.988 2.788c0-2.44-.697-4.183-1.394-5.925-1.046-1.395-2.092-2.44-3.834-2.44-1.046 0-1.743.348-2.44.697-.698.348-1.046 1.046-1.395 1.394-1.045 1.046-1.394 1.743-1.394 2.44 0 .697-.348 1.394-.348 1.743v40.78c0 1.046.348 2.092.697 3.138.697 1.045 1.742 1.394 3.834 1.394 1.394 0 2.788-.349 3.834-1.046 1.046-.697 1.394-1.743 1.394-3.137v-12.2h-5.228V47.445h20.914v24.748c0 6.622-1.743 11.502-5.229 14.987-3.485 3.486-8.365 5.229-14.988 5.229-7.32 0-12.548-1.743-15.685-4.88-3.137-3.486-4.88-8.365-4.88-14.988V32.108c0-6.274 1.743-11.503 5.228-15.337 3.486-3.485 8.714-5.577 15.337-5.577zM276.184 91.71V11.893h36.6v14.987H291.87v17.08h18.474v14.987H291.87v18.125h20.914V92.06h-36.6zM346.943 49.535V11.892h15.337V91.71h-13.246l-9.411-23.354-5.577-14.987h-.697v38.34h-15.686V11.893h13.594l9.412 23.004 5.228 14.64zM370.645 91.71V11.893h36.6v14.987H386.33v17.08h18.474v14.987H386.33v18.125h20.914V92.06h-36.599zM431.644 11.892c3.137 0 6.274.348 9.062 1.045 2.789.697 5.229 2.092 6.972 4.183 2.091 1.743 3.485 4.183 4.531 7.32 1.046 3.137 1.743 6.622 1.743 11.153 0 5.577-.697 9.76-2.092 13.245-1.394 3.486-3.834 6.274-6.622 8.366L456.74 91.71h-16.034l-9.41-31.022h-3.138v31.022h-15.685V11.89h19.17zm-3.137 14.987v18.822h2.44c1.045 0 2.091 0 3.137-.348 1.045-.349 1.743-.697 2.788-1.394.697-.698 1.394-1.743 1.743-3.137.349-1.395.697-2.789.697-4.88 0-3.137-.697-5.229-2.091-6.623-1.394-1.394-3.486-2.091-5.926-2.091h-2.788v-.349z" fill="#000"/><path d="M487.065 76.026h-11.85l-2.44 15.685h-16.383l14.988-79.82h19.171l15.337 79.82h-16.383l-2.44-15.685zm-8.017-27.188l-1.742 12.548h7.32l-1.395-12.548-1.743-16.033h-.697l-1.743 16.033zM509.722 91.71V11.893h15.685v64.83h20.914v14.989zM254.225 171.53h-11.851l-2.092 15.685H223.9l14.988-79.82h19.171l14.988 79.82h-16.382l-2.44-15.685zm-7.669-27.188l-1.742 12.548h7.32l-1.395-12.548-2.091-16.382h-.697l-1.395 16.382zM316.618 163.861c0 3.835-.349 6.972-1.046 10.109-.697 3.137-1.743 5.576-3.486 7.668-1.394 2.091-3.834 3.834-6.274 4.88-2.788 1.045-5.925 1.742-10.108 1.742-3.834 0-6.971-.697-9.411-1.742-2.789-1.046-4.88-2.44-6.274-4.532-1.743-1.742-2.789-4.182-3.486-6.622-.697-2.44-1.046-5.229-1.046-8.017l15.686-3.137c0 2.788.697 5.228 1.394 6.623.697 1.394 2.091 2.09 4.183 2.09 1.045 0 2.091-.348 2.788-.696.697-.697 1.046-1.394 1.394-2.092.349-.697.698-1.742.698-3.137v-3.485c0-1.743 0-2.789-.349-3.834-.349-1.046-.697-2.092-1.046-2.789-.697-.697-1.394-1.394-2.44-2.091-1.045-.697-2.091-1.046-3.834-1.743-3.834-1.743-6.971-3.137-9.411-4.88-2.44-1.742-4.183-3.485-5.577-5.576-1.394-2.092-2.091-3.834-2.44-6.274-.349-2.092-.697-4.532-.697-7.32 0-3.137.348-6.274 1.046-9.062.697-2.789 2.09-5.229 3.485-7.32 1.743-2.091 3.834-3.486 6.274-4.531 2.789-1.046 5.926-1.743 9.412-1.743 3.834 0 7.32.697 9.76 1.743 2.44 1.394 4.53 2.788 6.273 4.88 1.395 2.09 2.44 4.182 3.138 6.622.697 2.44 1.045 4.531 1.045 6.971l-15.337 3.486v-3.137c0-1.046-.348-1.743-.697-2.789-.348-.697-1.045-1.394-1.394-1.743-.697-.348-1.394-.697-2.788-.697-1.046 0-1.743.349-2.44.697-.698.349-1.046 1.046-1.395 1.743-.348.697-.697 1.394-.697 2.44v2.789c0 1.045 0 2.09.349 2.788 0 .697.697 1.743 1.045 2.44.698.697 1.395 1.394 2.789 2.091l4.88 2.44c3.485 1.394 6.623 3.137 8.714 4.531 2.091 1.743 3.834 3.486 4.88 5.229 1.046 1.742 1.743 4.182 2.091 6.622.349 2.44.349 5.228.349 8.365zM362.977 163.861c0 3.835-.349 6.972-1.046 10.109-.697 3.137-1.743 5.576-3.486 7.668-1.394 2.091-3.834 3.834-6.274 4.88-2.788 1.045-5.925 1.742-10.108 1.742-3.834 0-6.971-.697-9.411-1.742-2.789-1.046-4.88-2.44-6.274-4.532-1.743-1.742-2.789-4.182-3.486-6.622-.697-2.44-1.046-5.229-1.046-8.017l15.686-3.137c0 2.788.697 5.228 1.394 6.623.697 1.394 2.091 2.09 4.183 2.09 1.045 0 2.091-.348 2.788-.696.697-.697 1.046-1.394 1.394-2.092.349-.697.697-1.742.697-3.137v-3.485c0-1.743 0-2.789-.348-3.834-.349-1.046-.697-2.092-1.046-2.789-.697-.697-1.394-1.394-2.44-2.091-1.045-.697-2.091-1.046-3.834-1.743-3.834-1.743-6.971-3.137-9.411-4.88-2.44-1.742-4.183-3.485-5.577-5.576-1.394-2.092-2.092-3.834-2.44-6.274-.349-2.092-.697-4.532-.697-7.32 0-3.137.348-6.274 1.045-9.062.698-2.789 2.092-5.229 3.486-7.32 1.743-2.091 3.834-3.486 6.274-4.531 2.789-1.046 5.926-1.743 9.411-1.743 3.835 0 7.32.697 9.76 1.743 2.44 1.394 4.532 2.788 6.274 4.88 1.395 2.09 2.44 4.182 3.137 6.622.698 2.44 1.046 4.531 1.046 6.971l-15.337 3.486v-3.137c0-1.046-.348-1.743-.697-2.789-.348-.697-1.045-1.394-1.394-1.743-.697-.348-1.394-.697-2.789-.697-1.045 0-1.742.349-2.44.697-.697.349-1.045 1.046-1.394 1.743-.348.697-.697 1.394-.697 2.44v2.789c0 1.045 0 2.09.349 2.788 0 .697.697 1.743 1.045 2.44.698.697 1.395 1.394 2.789 2.091l4.88 2.44c3.485 1.394 6.623 3.137 8.714 4.531 2.091 1.743 3.834 3.486 4.88 5.229 1.045 1.742 1.743 4.182 2.091 6.622 0 2.44.349 5.228.349 8.365zM369.25 187.215v-79.82h36.6v14.988h-20.914v17.08h18.474v14.987h-18.474v18.125h20.914v14.64zM434.084 171.53l-3.486-10.108-3.486-11.851h-.697v37.644H410.73v-79.82h14.64l8.017 21.262 5.228 15.685h.697l5.577-16.033 7.669-20.913h14.64v79.819h-15.686v-37.296h-.349l-3.834 12.2-3.137 9.41zM505.888 145.388c1.743.697 3.485 1.394 4.531 2.789 1.046 1.045 2.092 2.44 2.789 3.834.697 1.394 1.394 3.137 1.394 4.88.348 1.742.348 3.485.348 5.228 0 8.714-1.742 14.988-5.577 18.822-3.834 4.182-9.41 5.925-16.73 5.925h-17.777v-79.47h18.125c6.971 0 12.548 1.742 16.034 5.576 3.486 3.835 5.228 9.411 5.228 16.731 0 1.743 0 3.137-.348 4.88-.349 1.743-.697 3.137-1.394 4.531-.698 1.394-1.743 2.44-2.789 3.834-1.046 1.046-2.44 1.743-3.834 2.44zm-6.274-15.336c0-3.137-.697-5.229-1.743-6.274-1.046-1.046-3.137-1.395-5.577-1.395h-1.743v15.685h2.091c4.88 0 6.972-2.44 6.972-8.016zm.697 31.37c0-3.137-.697-5.577-1.743-6.623-1.046-1.394-2.789-2.091-4.88-2.091H490.9v19.867h2.788c1.394 0 2.789-.348 3.486-.697 1.045-.697 1.394-1.394 2.091-2.44.349-1.045.697-2.091 1.046-3.485v-4.531zM523.665 187.215v-79.82h15.685v64.832h20.914v14.988zM576.646 136.674l2.789-13.245 3.485-15.685h16.383l-15.337 47.404v32.067h-15.685v-32.416l-15.686-47.403h16.731l3.835 16.033 2.788 13.245z" fill="#000"/><path d="M191.135 100.076c0-3.834 3.137-6.971 6.971-7.32-.348-3.834-.697-8.016-1.394-11.85-3.834 1.045-7.669-1.395-8.714-4.88-1.046-3.834 1.394-7.669 4.88-8.714-1.395-3.834-2.789-7.32-4.532-10.805-3.485 2.09-7.668.697-9.76-2.44-2.09-3.486-.697-7.669 2.44-9.76-2.09-3.137-4.53-6.274-7.32-9.41a7.153 7.153 0 0 1-10.108 0 7.153 7.153 0 0 1 0-10.109c-2.788-2.44-5.925-4.88-9.41-7.32-2.092 3.486-6.275 4.532-9.76 2.44-3.486-2.091-4.532-6.274-2.44-9.76-3.486-1.742-6.972-3.136-10.806-4.53-1.046 3.834-4.88 5.925-8.714 4.88-3.834-1.046-5.926-4.88-4.88-8.715C113.754 1.086 109.92.39 106.085.39c0 3.834-3.137 7.32-6.97 7.32-3.835 0-6.972-3.137-6.972-7.32-3.834.349-7.669.697-11.503 1.394 1.046 3.835-1.045 7.669-4.88 8.714-3.834 1.046-7.668-1.394-8.714-4.88-3.834 1.395-7.32 2.789-10.805 4.532 2.091 3.485.697 7.668-2.44 9.76-3.486 2.09-7.669.696-9.76-2.44-3.137 2.09-6.274 4.53-9.411 7.32a7.153 7.153 0 0 1 0 10.107 7.153 7.153 0 0 1-10.109 0l-7.32 9.411c3.486 2.091 4.532 6.274 2.44 9.76-2.09 3.485-6.274 4.53-9.76 2.788-1.742 3.486-3.136 7.32-4.53 10.805 3.834 1.046 5.925 4.88 4.88 8.714-1.046 3.834-4.88 5.926-8.715 4.88C.82 85.088.122 88.922.122 93.104c3.834 0 6.971 3.138 6.971 7.32 0 3.835-3.137 6.972-6.971 6.972.349 3.834.697 8.016 1.394 11.85 3.834-1.045 7.669 1.395 8.714 4.88 1.046 3.834-1.394 7.668-4.88 8.714 1.395 3.834 2.789 7.32 4.532 11.154 3.485-2.091 7.668-.697 9.76 2.788 2.09 3.486.697 7.668-2.44 9.76 2.091 3.137 4.53 6.274 7.32 9.41a7.153 7.153 0 0 1 10.108 0 7.153 7.153 0 0 1 0 10.109c2.788 2.44 5.925 4.88 9.411 7.32 2.091-3.486 6.274-4.532 9.76-2.789 3.485 2.091 4.531 6.274 2.44 9.76 3.485 1.742 6.971 3.137 10.805 4.53 1.046-3.833 4.88-5.925 8.714-4.879 3.835 1.046 5.926 4.88 4.88 8.714 3.834.697 7.669 1.394 11.503 1.394 0-3.834 3.137-6.97 6.971-6.97s6.971 3.136 6.971 6.97c3.835-.348 7.669-.697 11.503-1.394-1.046-3.834 1.394-7.668 4.88-8.714 3.834-1.046 7.668 1.394 8.714 4.88 3.834-1.394 7.32-2.789 10.805-4.531-2.091-3.486-.697-7.669 2.44-9.76 3.486-2.091 7.669-.697 9.76 2.44 3.137-2.091 6.274-4.531 9.411-7.32a7.153 7.153 0 0 1 0-10.108 7.153 7.153 0 0 1 10.109 0l7.32-9.41c-3.486-2.092-4.532-6.275-2.44-9.76 2.091-3.486 6.274-4.531 9.76-2.789 1.742-3.485 3.136-7.32 4.53-11.153-3.834-1.046-5.925-4.88-4.88-8.714 1.046-3.834 4.88-5.926 8.715-5.229.697-3.834 1.394-7.668 1.394-11.85-3.834.697-6.971-2.789-6.971-6.623M71.926 41.519c-6.623 0-11.851 2.091-15.685 5.925-3.486 3.834-5.229 9.063-5.229 15.685v74.94c0 6.97 1.743 11.85 4.88 15.336 3.486 3.485 8.714 5.228 15.686 5.228 6.622 0 11.502-1.743 14.988-5.228 3.485-3.486 5.228-8.714 5.228-15.337v-34.855H70.88v13.942h5.229v21.96c0 1.393-.349 2.439-1.394 3.136-1.046.697-2.092 1.394-3.835 1.394-2.091 0-3.137-.348-3.834-1.394-.348-1.046-.697-2.091-.697-3.137V62.781c0-.698 0-1.046.349-2.092 0-.697.348-1.394.697-2.091.348-.697 1.045-1.046 1.394-1.743.697-.348 1.394-.697 2.44-.697h.349c1.045 0 1.742.349 2.44.697.697.349 1.045 1.046 1.394 1.743.348.697.697 1.394.697 2.091 0 .697.348 1.394.348 2.092v17.427h15.686V62.781c0-6.623-1.743-11.503-5.229-15.685-2.788-3.486-8.017-5.577-14.988-5.577zm59.256.697H112.01l-15.337 115.72h16.731l3.486-28.233h9.411l3.486 28.233h16.382l-14.988-115.72zm-9.411 73.893c-3.834 0-6.972-3.137-6.972-6.97 0-3.835 3.138-6.972 6.972-6.972 3.834 0 6.971 3.137 6.971 6.971s-3.137 6.971-6.971 6.971z" fill="#FF2841"/></g></svg>