<svg width="600" height="108" viewBox="0 0 600 108" xmlns="http://www.w3.org/2000/svg"><title>new-relic</title><g fill="none" fill-rule="evenodd"><path d="M210.253 85.23l-16.39-34.37c-3.912-8.144-7.93-17.344-9.306-21.68l-.316.317c.528 6.134.635 13.854.74 20.305l.422 35.428h-11.947V12.048h13.745l17.764 35.744c3.384 6.77 6.556 15.44 7.507 18.825l.318-.318c-.318-3.701-1.057-14.17-1.057-20.833l-.212-33.418h11.526V85.23h-12.794M255.083 39.226c-6.556 0-10.15 5.182-10.15 13.854h19.772c0-8.672-3.806-13.854-9.622-13.854zm-10.257 22.42v.846c0 7.403 2.75 15.229 13.217 15.229 4.97 0 9.305-1.798 13.323-5.288l4.547 7.086c-5.604 4.76-12.054 7.085-19.244 7.085-15.12 0-24.637-10.893-24.637-28.025 0-9.411 2.01-15.651 6.662-20.939 4.334-4.97 9.622-7.19 16.389-7.19 5.286 0 10.151 1.373 14.697 5.498 4.653 4.23 6.98 10.787 6.98 23.266v2.432h-31.934zM338.612 85.441H327.72l-6.556-24.64c-1.692-6.346-3.489-14.595-3.489-14.595h-.212s-.846 5.288-3.49 15.123l-6.45 24.112h-10.89l-14.592-52.983 11.525-1.586 5.816 25.91c1.48 6.663 2.75 14.064 2.75 14.064h.317s1.057-6.979 3.065-14.381l6.874-24.747h11.42l6.026 24.112c2.22 8.672 3.384 15.23 3.384 15.23h.318s1.268-8.146 2.643-14.384l5.498-24.958h12.054l-15.12 53.723M404.587 21.883h-6.662v23.16h6.24c6.343 0 9.727-.846 11.948-3.067 2.008-2.009 3.277-5.077 3.277-8.883 0-7.403-4.017-11.21-14.803-11.21zm16.917 63.347l-6.343-11.317c-5.075-8.989-8.46-14.064-12.477-18.083-1.375-1.375-2.432-2.116-4.759-2.221v31.62h-11.947V12.05h22.31c16.39 0 23.79 9.516 23.79 20.938 0 10.469-6.766 20.093-18.186 20.093 2.644 1.375 7.507 8.46 11.314 14.595l10.785 17.555h-14.487zM462.211 39.226c-6.555 0-10.15 5.182-10.15 13.854h19.773c0-8.672-3.807-13.854-9.623-13.854zm-10.257 22.42v.846c0 7.403 2.75 15.229 13.218 15.229 4.97 0 9.305-1.798 13.324-5.288l4.545 7.086c-5.603 4.76-12.053 7.085-19.243 7.085-15.121 0-24.638-10.893-24.638-28.025 0-9.411 2.01-15.651 6.662-20.939 4.335-4.97 9.622-7.19 16.39-7.19 5.286 0 10.15 1.373 14.697 5.498 4.652 4.23 6.978 10.787 6.978 23.266v2.432h-31.933zM505.667 86.393c-11.738 0-11.738-10.576-11.738-15.123V25.69c0-7.298-.317-11.21-1.057-15.652l11.949-2.644c.846 3.279.95 7.72.95 14.7v45.369c0 7.191.318 8.354 1.164 9.623.634.952 2.432 1.481 3.806.846l1.903 7.191c-2.114.847-4.334 1.27-6.977 1.27M520.044 85.23V32.563l11.738-2.113v54.78h-11.738zm5.817-61.443c-4.23 0-7.508-3.49-7.508-7.721 0-4.336 3.382-7.826 7.718-7.826 4.124 0 7.613 3.385 7.613 7.826 0 4.23-3.49 7.72-7.823 7.72zM565.087 86.604c-14.591 0-22.733-10.258-22.733-27.496 0-19.458 11.631-28.765 23.58-28.765 5.815 0 10.044 1.375 14.802 5.816l-5.815 7.72c-3.172-2.854-5.921-4.124-8.988-4.124-3.7 0-6.767 1.905-8.46 5.393-1.585 3.279-2.219 8.25-2.219 14.912 0 7.297 1.163 11.95 3.594 14.594 1.692 1.903 4.23 3.067 7.085 3.067 3.702 0 7.296-1.798 10.786-5.288l5.498 7.086c-4.864 4.864-9.94 7.085-17.13 7.085M592.75 75.632c-.19-.063-.57-.126-.992-.126h-.635v2.386h.592c.76 0 1.097-.085 1.33-.296.211-.21.338-.528.338-.886 0-.55-.211-.91-.633-1.078zm.928 7.263c-.337-.59-.485-.823-.823-1.456-.865-1.584-1.14-2.027-1.456-2.153a.576.576 0 0 0-.276-.064v3.673h-1.73v-8.804h3.272c1.562 0 2.597 1.034 2.597 2.576 0 1.33-.887 2.408-1.963 2.428.168.148.253.231.358.38.507.633 2.111 3.42 2.111 3.42h-2.09zm-1.541-10.64c-3.335 0-6.017 2.786-6.017 6.291 0 3.506 2.682 6.334 6.017 6.334 3.336 0 6.038-2.828 6.038-6.334 0-3.505-2.702-6.292-6.038-6.292zm0 14.145c-4.285 0-7.81-3.462-7.81-7.854 0-4.37 3.525-7.855 7.81-7.855 4.286 0 7.812 3.485 7.812 7.855 0 4.392-3.526 7.854-7.812 7.854z" fill="#1B1A19"/><path d="M66.991 80.706c-14.53 0-26.308-11.78-26.308-26.314 0-14.528 11.778-26.306 26.308-26.306 14.525 0 26.304 11.778 26.304 26.306 0 14.534-11.78 26.314-26.304 26.314zm65.203-40.492c-6.205-28.541-40.429-45.33-76.442-37.5-36.01 7.831-60.172 37.32-53.97 65.861 6.206 28.542 40.432 45.333 76.441 37.501 36.013-7.83 60.176-37.32 53.971-65.862z" fill="#37808C"/><path d="M66.991 77.378c-12.691 0-22.98-10.29-22.98-22.985 0-12.69 10.289-22.98 22.98-22.98 12.687 0 22.976 10.29 22.976 22.98 0 12.694-10.289 22.985-22.976 22.985zm5.818-59.815c-20.86 0-37.771 16.913-37.771 37.777S51.95 93.119 72.809 93.119c20.862 0 37.774-16.915 37.774-37.78 0-20.863-16.912-37.776-37.774-37.776z" fill="#9BD3CD"/></g></svg>