<svg width="561" height="123" viewBox="0 0 561 123" xmlns="http://www.w3.org/2000/svg"><title>acquia</title><g fill-rule="nonzero" fill="#29AAE1"><path d="M363.785 121.764c-26.76 0-46.2-21.6-46.2-51.358l.012-48.864h19.564v48.864c0 20.154 10.265 32.673 26.79 32.673 16.504 0 26.75-12.519 26.75-32.673l-.052-48.92h19.621v48.92c0 29.758-19.556 51.358-46.485 51.358M428.363 21.485h19.485v97.529h-19.485zM165.513 104.181c-18.196 0-32.95-14.748-32.95-32.943s14.754-32.941 32.95-32.941c8.629 0 16.462 3.346 22.33 8.774a67.356 67.356 0 0 1 9.311-16.65c-8.748-6.8-19.71-10.881-31.64-10.881-28.55 0-51.703 23.148-51.703 51.698 0 28.548 23.152 51.696 51.702 51.696 11.932 0 22.893-4.085 31.641-10.878a67.414 67.414 0 0 1-9.31-16.649c-5.869 5.43-13.702 8.774-22.33 8.774M511.822 35.533c-8.662 0-16.006 3.333-21.83 9.895-5.688 6.577-8.57 14.77-8.57 24.362 0 10.218 2.806 18.68 8.333 25.16 5.755 6.658 13.11 10.036 21.858 10.036 9.283 0 16.908-3.26 22.658-9.68 5.698-6.583 8.58-14.987 8.58-24.995 0-10.003-2.879-18.4-8.55-24.965-5.768-6.512-13.33-9.813-22.48-9.813zm-3.75 86.109c-13.34 0-24.52-4.887-33.222-14.518-8.69-9.88-13.102-22.438-13.102-37.334 0-14.604 4.409-26.923 13.106-36.612 8.634-9.625 19.6-14.504 32.59-14.504 11.157 0 21.331 4.686 30.246 13.938l3.7 3.83V21.485h19.258v97.236H541.39v-13.44l-3.622 3.385c-9.204 8.61-19.198 12.976-29.697 12.976zM253.898 19.538a7.693 7.693 0 0 1-.3-.012c-.923-.051-1.187.384-.858 1.068.045.106.09.213.145.317 1.82 3.85 6.496 13.24 14.693 19.703 10.576 8.334 16.995 18.215 16.995 30.587 0 15.706-12.309 32.878-32.451 32.878-20.142 0-32.453-17.172-32.453-32.878 0-12.372 6.42-22.253 16.999-30.587 8.346-6.586 13.133-16.152 14.78-19.894.35-.728.155-1.22-.697-1.237h-.165c-28.01.598-50.613 23.573-50.613 51.718 0 23.065 19.546 49.896 51.089 49.896 31.54 0 52.387-21.513 52.387-49.896 0-28.385-22.041-50.507-49.55-51.663"/><path d="M290.235 86.722l-13.399 14.148 18.962 17.953h28.344l-33.907-32.101M35.949 84.552l22.759-50.43 22.766 50.43H35.95zm61.08 34.462h20.386L66.216 5.547C64.914 2.689 62.048.692 58.708.692c-3.343 0-6.209 1.997-7.51 4.855L0 119.014h20.388l7.42-16.224h61.905l7.316 16.224z"/></g></svg>