<svg width="599" height="98" viewBox="0 0 599 98" xmlns="http://www.w3.org/2000/svg"><title>groupon</title><path d="M96.598 49.073c0 2.629-.165 5.158-.493 7.59a50.334 50.334 0 0 1-1.479 7.097 44.029 44.029 0 0 1-2.464 6.604 46.871 46.871 0 0 1-3.45 6.111 51.108 51.108 0 0 1-7.787 8.674 46.854 46.854 0 0 1-9.561 6.604 47.747 47.747 0 0 1-10.843 4.042 49.395 49.395 0 0 1-11.63 1.38c-3.418 0-6.736-.296-9.956-.887a42.33 42.33 0 0 1-9.167-2.76 43.68 43.68 0 0 1-8.181-4.633c-2.563-1.84-5.027-4.009-7.393-6.506a41.091 41.091 0 0 1-5.816-7.294 48.71 48.71 0 0 1-4.14-8.28 46.136 46.136 0 0 1-2.464-9.068C1.25 54.593.986 51.242.986 47.693c0-3.154.295-6.275.887-9.364a44.657 44.657 0 0 1 2.661-8.871 47.139 47.139 0 0 1 4.436-8.181 43.463 43.463 0 0 1 6.21-7.295 44.885 44.885 0 0 1 7.294-5.914 51.432 51.432 0 0 1 8.18-4.337 44.657 44.657 0 0 1 8.872-2.661 50.733 50.733 0 0 1 9.561-.887c4.995 0 9.791.756 14.391 2.267a47.189 47.189 0 0 1 12.716 6.407c3.877 2.76 7.36 6.144 10.448 10.152 3.089 4.009 5.553 8.51 7.393 13.504H68.013c-1.446-1.577-2.925-2.924-4.436-4.04a31.496 31.496 0 0 0-4.633-2.86 19.182 19.182 0 0 0-4.83-1.675 26.605 26.605 0 0 0-5.224-.493c-3.417 0-6.604.624-9.561 1.873a24.228 24.228 0 0 0-7.787 5.224c-2.234 2.234-3.976 4.863-5.224 7.886a24.55 24.55 0 0 0-1.873 9.462c0 3.68.657 7.13 1.971 10.35 1.315 3.22 3.122 6.013 5.422 8.378 2.3 2.366 4.895 4.206 7.787 5.52 2.891 1.314 5.98 1.972 9.265 1.972 2.103 0 4.173-.263 6.21-.789a23.516 23.516 0 0 0 5.816-2.366 22.186 22.186 0 0 0 5.027-3.942c1.511-1.578 2.792-3.417 3.844-5.52H43.173V42.962H96.4c0 .525.033 1.051.099 1.577s.099 1.051.099 1.577v2.957zm5.914 46.327V2.154h30.95c2.366 0 4.666.033 6.9.099 2.234.065 4.304.295 6.21.69 1.906.394 3.746.92 5.52 1.577a19.83 19.83 0 0 1 5.027 2.76 33.972 33.972 0 0 1 5.323 4.83 25.035 25.035 0 0 1 3.942 6.012 36.22 36.22 0 0 1 2.465 7.097c.591 2.497.887 5.192.887 8.083 0 3.811-.493 7.327-1.479 10.547-.986 3.22-2.398 6.144-4.238 8.772a27.825 27.825 0 0 1-6.604 6.703c-2.563 1.84-5.553 3.22-8.97 4.14L171.313 95.4h-28.19l-17.94-29.965V95.4h-22.671zm27.205-50.27c2.891 0 5.388-.197 7.49-.591 2.104-.394 3.845-1.019 5.225-1.873 1.38-.854 2.399-2.004 3.056-3.45.657-1.446.985-3.22.985-5.323 0-1.971-.295-3.647-.887-5.027a7.624 7.624 0 0 0-2.76-3.351c-1.248-.854-2.792-1.478-4.632-1.873-1.84-.394-4.075-.591-6.703-.591h-6.308v22.08h4.534zm57.564-31.148a56.073 56.073 0 0 1 7.393-5.914 41.972 41.972 0 0 1 8.18-4.238 51.939 51.939 0 0 1 8.97-2.563 50.733 50.733 0 0 1 9.562-.887c3.154 0 6.242.296 9.265.887a45.07 45.07 0 0 1 8.773 2.661 47.848 47.848 0 0 1 8.083 4.337 47.153 47.153 0 0 1 7.195 5.915 56.051 56.051 0 0 1 6.309 7.49 42.407 42.407 0 0 1 4.534 8.28 47.435 47.435 0 0 1 2.661 8.872c.591 3.023.887 6.111.887 9.265 0 3.417-.263 6.703-.788 9.857a42.186 42.186 0 0 1-2.563 9.069 54.593 54.593 0 0 1-4.239 8.28 41.091 41.091 0 0 1-5.815 7.293 45.204 45.204 0 0 1-7.393 6.309 45.155 45.155 0 0 1-8.378 4.534 51.793 51.793 0 0 1-9.069 2.76 47.236 47.236 0 0 1-9.66.986c-3.416 0-6.735-.329-9.955-.986a51.181 51.181 0 0 1-9.167-2.76 42.407 42.407 0 0 1-8.28-4.534c-2.628-1.84-5.06-4.009-7.294-6.506a41.091 41.091 0 0 1-5.815-7.294 48.71 48.71 0 0 1-4.14-8.28 46.136 46.136 0 0 1-2.464-9.068c-.526-3.154-.789-6.505-.789-10.054 0-3.154.296-6.275.887-9.364a44.657 44.657 0 0 1 2.662-8.871 47.139 47.139 0 0 1 4.435-8.181 49.286 49.286 0 0 1 6.013-7.295zm33.908 60.128c3.417 0 6.604-.658 9.56-1.972 2.958-1.314 5.52-3.121 7.69-5.421 2.168-2.3 3.91-5.027 5.223-8.181 1.315-3.155 1.972-6.637 1.972-10.449 0-3.417-.657-6.637-1.972-9.66-1.314-3.022-3.055-5.618-5.224-7.786-2.168-2.169-4.698-3.91-7.59-5.225-2.89-1.314-5.98-1.97-9.265-1.97-3.549 0-6.834.656-9.857 1.97-3.023 1.315-5.651 3.056-7.885 5.225-2.235 2.168-3.976 4.764-5.225 7.787-1.248 3.022-1.872 6.242-1.872 9.66 0 3.68.657 7.096 1.971 10.25 1.314 3.155 3.121 5.882 5.421 8.182a27.53 27.53 0 0 0 7.886 5.52c2.957 1.38 6.012 2.07 9.167 2.07zm76.883-71.956v57.367c0 2.629.198 4.962.592 6.999.394 2.037 1.051 3.712 1.971 5.027.92 1.314 2.07 2.3 3.45 2.957 1.38.657 3.056.985 5.027.985 1.972 0 3.713-.328 5.224-.985a9.179 9.179 0 0 0 3.746-2.957c.986-1.315 1.708-2.957 2.168-4.929.46-1.971.69-4.337.69-7.097V2.154h22.868v58.353c0 5.651-.854 10.744-2.562 15.278-1.709 4.534-4.075 8.346-7.097 11.434-3.023 3.089-6.67 5.487-10.941 7.196-4.272 1.708-9.036 2.563-14.293 2.563s-9.988-.822-14.194-2.465c-4.206-1.643-7.754-4.008-10.645-7.097-2.892-3.088-5.126-6.867-6.703-11.335-1.577-4.469-2.366-9.66-2.366-15.574V2.154h23.065zM350.314 95.4V2.154h30.95c2.498 0 4.83.033 6.999.099a37.41 37.41 0 0 1 6.21.69c1.971.394 3.811.92 5.52 1.577 1.708.657 3.351 1.577 4.928 2.76 2.103 1.445 3.943 3.055 5.52 4.83a25.035 25.035 0 0 1 3.943 6.012c1.051 2.235 1.84 4.633 2.365 7.196.526 2.563.789 5.29.789 8.181 0 3.023-.329 5.881-.986 8.576a32.883 32.883 0 0 1-2.858 7.59 30.06 30.06 0 0 1-4.633 6.505 25.544 25.544 0 0 1-6.308 4.928 19.381 19.381 0 0 1-4.732 2.169 43.637 43.637 0 0 1-5.421 1.281c-1.906.329-3.91.559-6.013.69-2.102.132-4.402.197-6.9.197h-6.505V95.4h-22.868zm27.402-50.27c2.76 0 5.191-.197 7.294-.591 2.103-.394 3.844-1.019 5.224-1.873a8.405 8.405 0 0 0 3.155-3.45c.722-1.446 1.084-3.22 1.084-5.323 0-1.971-.296-3.647-.887-5.027a7.624 7.624 0 0 0-2.76-3.351c-1.249-.854-2.826-1.478-4.732-1.873-1.905-.394-4.107-.591-6.604-.591h-6.11v22.08h4.336zm56.973-31.148a56.073 56.073 0 0 1 7.393-5.914 41.972 41.972 0 0 1 8.18-4.238 51.938 51.938 0 0 1 8.97-2.563 50.733 50.733 0 0 1 9.562-.887c3.154 0 6.21.296 9.167.887a45.548 45.548 0 0 1 8.674 2.661 51.432 51.432 0 0 1 8.181 4.337 44.885 44.885 0 0 1 7.294 5.915 50.76 50.76 0 0 1 6.21 7.49 50.684 50.684 0 0 1 4.534 8.28 43.292 43.292 0 0 1 2.76 8.872c.591 3.023.887 6.111.887 9.265 0 3.417-.296 6.703-.887 9.857a51.373 51.373 0 0 1-2.563 9.069 44.75 44.75 0 0 1-4.238 8.28 51.823 51.823 0 0 1-5.717 7.293 56.051 56.051 0 0 1-7.491 6.309 42.407 42.407 0 0 1-8.28 4.534 51.793 51.793 0 0 1-9.069 2.76 47.236 47.236 0 0 1-9.66.986c-3.416 0-6.735-.329-9.955-.986a51.181 51.181 0 0 1-9.167-2.76 42.407 42.407 0 0 1-8.28-4.534c-2.628-1.84-5.06-4.009-7.294-6.506a41.091 41.091 0 0 1-5.815-7.294 48.71 48.71 0 0 1-4.14-8.28 51.373 51.373 0 0 1-2.563-9.068c-.591-3.154-.887-6.505-.887-10.054 0-3.154.329-6.275.986-9.364a49.708 49.708 0 0 1 2.76-8.871 47.139 47.139 0 0 1 4.435-8.181 49.286 49.286 0 0 1 6.013-7.295zm33.908 60.128c3.417 0 6.604-.658 9.56-1.972 2.958-1.314 5.52-3.121 7.69-5.421 2.168-2.3 3.876-5.027 5.125-8.181 1.248-3.155 1.873-6.637 1.873-10.449 0-3.417-.625-6.637-1.873-9.66-1.249-3.022-2.957-5.618-5.126-7.786-2.168-2.169-4.731-3.91-7.688-5.225-2.957-1.314-6.079-1.97-9.364-1.97-3.417 0-6.637.656-9.66 1.97-3.023 1.315-5.651 3.056-7.885 5.225-2.235 2.168-3.976 4.764-5.225 7.787-1.248 3.022-1.872 6.242-1.872 9.66 0 3.68.657 7.096 1.971 10.25 1.314 3.155 3.121 5.882 5.421 8.182a27.53 27.53 0 0 0 7.886 5.52c2.957 1.38 6.012 2.07 9.167 2.07zm52.438 21.29V2.154h20.503l34.302 51.847V2.154h22.868V95.4H578.6l-34.697-52.044V95.4h-22.868z" fill="#53A318" fill-rule="evenodd"/></svg>