<svg xmlns="http://www.w3.org/2000/svg" width="356" height="153" viewBox="0, 0, 356, 153"><g fill="#8DC23E"><path d="M162.113 37.356l.159.478c.47 1.413.91 2.884 1.312 4.372l3.714.265 3.737.646a83.721 83.721 0 0 1 2.322-3.927l.27-.427.487.128c2.204.573 3.858 1.118 5.369 1.768l.451.195-.035.489a80.769 80.769 0 0 1-.452 4.536c.67.308 1.326.649 1.96.98l.131.068c.41.213.82.426 1.235.63.855.499 1.641 1.01 2.402 1.504.271.176.54.352.811.526a82.246 82.246 0 0 1 3.651-2.733l.412-.291.401.302c1.684 1.268 3.083 2.478 4.277 3.699l.345.354-.221.441a81.924 81.924 0 0 1-2.159 4.015c.506.557.997 1.132 1.471 1.688l.052.06c.305.358.612.716.92 1.071l.89 1.253.082.114c.404.567.821 1.153 1.217 1.743a84.752 84.752 0 0 1 4.408-1.131l.482-.109.259.421c.9 1.462 1.735 3.112 2.554 5.046l.197.463-.379.329a80.093 80.093 0 0 1-3.528 2.897c.104.308.208.613.314.919.299.871.605 1.759.865 2.648.108.491.215.936.323 1.381l.03.126c.171.711.347 1.441.486 2.179 1.469.171 2.982.388 4.5.648l.484.083.08.486c.341 2.069.405 4.104.422 5.646l.006.504-.478.161a78.834 78.834 0 0 1-4.362 1.314l-.263 3.72-.648 3.747a82.002 82.002 0 0 1 3.919 2.326l.426.27-.126.489c-.389 1.496-.941 3.46-1.767 5.378l-.193.45-.489-.034a81.078 81.078 0 0 1-4.526-.452c-.32.699-.67 1.376-1.011 2.031l-.025.05c-.217.417-.433.834-.639 1.254-.484.83-.984 1.603-1.468 2.351l-.255.397-.302.468a79.342 79.342 0 0 1 2.729 3.664l.291.41-.303.404c-1.269 1.689-2.476 3.089-3.691 4.28l-.352.346-.441-.222a83.79 83.79 0 0 1-4.009-2.159c-.528.48-1.064.94-1.703 1.486l-.046.042c-.357.304-.712.609-1.064.917-.464.33-.867.618-1.269.907l-.037.026c-.55.394-1.171.839-1.798 1.261a83.077 83.077 0 0 1 1.129 4.418l.109.482-.42.259c-1.449.894-3.097 1.731-5.039 2.559l-.462.197-.33-.381a82.784 82.784 0 0 1-2.887-3.533c-.33.112-.659.225-.988.339l-.03.01c-.84.288-1.69.582-2.539.834-.528.117-1.006.232-1.483.347-.677.165-1.441.349-2.198.492a82.158 82.158 0 0 1-.651 4.512l-.084.483-.484.079c-1.61.267-3.348.398-5.634.423l-.504.006-.16-.479c-.471-1.43-.913-2.9-1.311-4.371l-3.712-.262-3.739-.648a81.488 81.488 0 0 1-2.322 3.923l-.269.427-.487-.125c-2.195-.57-3.852-1.116-5.369-1.77l-.45-.194.035-.49c.106-1.497.258-3.021.452-4.533a42.789 42.789 0 0 1-1.976-.986l-.035-.017a54.64 54.64 0 0 0-1.317-.674 58.661 58.661 0 0 1-2.319-1.455l-.095-.061-.797-.516a81.95 81.95 0 0 1-3.653 2.733l-.41.291-.403-.302c-1.687-1.273-3.084-2.483-4.274-3.699l-.346-.353.221-.441a88.631 88.631 0 0 1 2.155-4.017 81.182 81.182 0 0 1-1.431-1.645l-.022-.025a91.178 91.178 0 0 0-.986-1.146c-.294-.417-.554-.781-.811-1.141l-.102-.145a82.01 82.01 0 0 1-1.277-1.827 83.894 83.894 0 0 1-4.409 1.131l-.482.109-.258-.421c-.901-1.467-1.736-3.117-2.553-5.045l-.196-.463.379-.33a79.67 79.67 0 0 1 3.525-2.897c-.106-.32-.217-.64-.326-.958l-.015-.041c-.271-.792-.579-1.689-.837-2.565a73.254 73.254 0 0 0-.306-1.313l-.041-.169a46.025 46.025 0 0 1-.494-2.205 80.97 80.97 0 0 1-4.499-.654l-.483-.084-.08-.484c-.268-1.62-.398-3.361-.422-5.645l-.006-.505.479-.158a81.851 81.851 0 0 1 4.362-1.315l.263-3.722.646-3.744a83.771 83.771 0 0 1-3.918-2.325l-.427-.271.127-.489c.574-2.216 1.119-3.875 1.766-5.378l.194-.452.49.036c1.52.111 3.042.263 4.523.453.318-.696.666-1.365 1.003-2.013l.021-.042c.229-.439.447-.857.654-1.277.49-.843.997-1.629 1.487-2.389a86.2 86.2 0 0 0 .535-.833 81.76 81.76 0 0 1-2.728-3.659l-.289-.411.3-.403c1.255-1.671 2.463-3.071 3.693-4.283l.353-.345.439.222a81.649 81.649 0 0 1 4.009 2.159 80.5 80.5 0 0 1 1.634-1.427l.045-.039c.393-.336.766-.655 1.133-.979.459-.325.854-.608 1.25-.891a82.767 82.767 0 0 1 1.855-1.303 85.384 85.384 0 0 1-1.127-4.416l-.108-.483.419-.26c1.451-.896 3.098-1.733 5.038-2.559l.463-.197.329.382a82.433 82.433 0 0 1 2.888 3.533l.696-.239.26-.089c.8-.277 1.707-.591 2.601-.855.5-.111.955-.22 1.409-.329l.078-.019a43.463 43.463 0 0 1 2.193-.493c.173-1.493.391-3.01.65-4.511l.083-.484.485-.08c1.633-.267 3.37-.398 5.635-.422l.503-.005zm-.993 1.395c-1.728.033-3.142.135-4.436.322a81.591 81.591 0 0 0-.614 4.452l-.056.522-.519.085c-.87.141-1.751.355-2.603.561-.494.119-.983.237-1.473.345-.794.235-1.646.53-2.469.815l-.036.012c-.48.166-.952.329-1.427.486l-.467.154-.298-.393a78.626 78.626 0 0 0-2.805-3.476 35.915 35.915 0 0 0-3.968 2.008c.344 1.48.726 2.939 1.135 4.339l.143.493-.429.279c-.77.505-1.514 1.039-2.233 1.554-.399.287-.799.573-1.202.855-.31.276-.684.597-1.059.919l-.041.035c-.672.577-1.355 1.162-2 1.763l-.376.346-.441-.256a81.625 81.625 0 0 0-3.928-2.149 35.956 35.956 0 0 0-2.903 3.375 79.195 79.195 0 0 0 2.694 3.566l.307.383-.261.418c-.262.418-.531.833-.799 1.249-.485.752-.988 1.529-1.44 2.304-.196.403-.426.844-.656 1.286-.412.793-.836 1.608-1.18 2.416l-.206.484-.521-.07a79.968 79.968 0 0 0-4.459-.474c-.488 1.202-.928 2.553-1.379 4.236a80.085 80.085 0 0 0 3.848 2.251l.434.237-.807 4.65-.324 4.638-.477.126a80.495 80.495 0 0 0-4.277 1.259c.032 1.739.134 3.155.322 4.443 1.449.244 2.943.452 4.441.617l.522.057.083.519c.141.873.356 1.757.562 2.613l.015.061c.113.469.227.938.329 1.41.243.819.55 1.711.82 2.497.165.481.331.961.488 1.442l.153.469-.39.298a75.018 75.018 0 0 0-3.468 2.814 36.405 36.405 0 0 0 2.003 3.973 80.738 80.738 0 0 0 4.331-1.139l.492-.142.279.428c.484.741 1 1.466 1.499 2.167l.029.041c.293.41.586.822.875 1.238.287.319.619.708.95 1.097.539.632 1.15 1.347 1.76 2.005l.348.374-.257.443a85.777 85.777 0 0 0-2.143 3.941c.97.955 2.073 1.907 3.368 2.906a80.07 80.07 0 0 0 3.56-2.697l.382-.309.417.263c.364.228.724.461 1.084.695l.252.163c.718.465 1.459.947 2.209 1.388.395.193.833.421 1.272.648l.064.034c.767.399 1.56.811 2.361 1.153l.483.209-.071.521a77.813 77.813 0 0 0-.476 4.466c1.209.494 2.558.934 4.229 1.381a78.894 78.894 0 0 0 2.249-3.852l.236-.436 4.641.81 4.626.324.126.477a82.368 82.368 0 0 0 1.258 4.284c1.738-.032 3.153-.135 4.437-.32.245-1.47.451-2.968.613-4.452l.057-.523.518-.084c.866-.14 1.748-.353 2.601-.559.499-.122.987-.239 1.476-.345a64.81 64.81 0 0 0 2.444-.808l.425-.146c.355-.121.708-.242 1.064-.36l.466-.152.298.39a77.854 77.854 0 0 0 2.805 3.476c1.503-.658 2.803-1.316 3.969-2.008a80.053 80.053 0 0 0-1.138-4.34l-.143-.492.429-.28c.726-.476 1.447-.99 2.143-1.488l.223-.16c.357-.254.713-.509 1.071-.758.244-.22.536-.47.834-.728l.228-.194c.639-.547 1.363-1.166 2.037-1.797l.373-.348.443.257a81.42 81.42 0 0 0 3.932 2.15 36.036 36.036 0 0 0 2.9-3.375 76.684 76.684 0 0 0-2.694-3.568l-.309-.384.263-.418c.222-.352.447-.7.673-1.05l.115-.179c.494-.764.999-1.545 1.453-2.32.177-.363.383-.761.591-1.162l.076-.149c.403-.777.82-1.58 1.166-2.392l.206-.484.52.069c1.48.201 2.981.36 4.462.475.643-1.585 1.092-3.158 1.379-4.236a78.868 78.868 0 0 0-3.848-2.252l-.435-.238.809-4.652.323-4.636.478-.126a77.556 77.556 0 0 0 4.277-1.258c-.02-1.115-.078-2.751-.322-4.445a81.112 81.112 0 0 0-4.443-.612l-.521-.057-.086-.52c-.143-.888-.367-1.814-.564-2.632l-.034-.137c-.105-.438-.21-.876-.305-1.315a63.21 63.21 0 0 0-.821-2.504l-.012-.036a92.209 92.209 0 0 1-.476-1.401l-.154-.467.391-.299a78.3 78.3 0 0 0 3.47-2.813 36.003 36.003 0 0 0-2.004-3.975c-1.45.338-2.907.722-4.331 1.138l-.492.144-.279-.429a63.554 63.554 0 0 0-1.525-2.202l-.119-.168c-.254-.357-.508-.713-.759-1.073-.23-.259-.498-.572-.77-.889l-.114-.133c-.588-.69-1.196-1.405-1.827-2.082l-.351-.377.259-.443a80.814 80.814 0 0 0 2.148-3.938 36.366 36.366 0 0 0-3.372-2.906 77.708 77.708 0 0 0-3.558 2.699l-.384.309-.416-.263c-.415-.263-.827-.531-1.239-.798a59.508 59.508 0 0 0-2.304-1.448c-.38-.184-.792-.397-1.252-.638l-.059-.03c-.778-.406-1.582-.825-2.386-1.17l-.481-.207.068-.52c.199-1.471.359-2.974.475-4.469-1.208-.492-2.557-.933-4.229-1.382a80.346 80.346 0 0 0-2.25 3.856l-.238.433-.162-.028-4.477-.778-4.627-.327-.126-.479a79.152 79.152 0 0 0-1.257-4.284zM100.017.667l.426.062c1.063.154 2.03.38 3.447.805l.454.135.036.472c.152 1.924.161 3.92.023 5.934 1.026.412 1.967.935 2.879 1.442a24.294 24.294 0 0 1 2.692 1.883c1.664-.951 3.423-1.763 5.526-2.552l.417-.156.313.315c.787.79 1.491 1.658 2.172 2.497l.442.548-.261.419a44.259 44.259 0 0 1-3.478 4.819c.523.888 1.061 1.853 1.483 2.895a20 20 0 0 1 1.068 3.072c2.136.243 4.147.641 5.979 1.183l.422.125.066.436c.198 1.319.294 2.481.294 3.551l-.001.463-.427.176a39.683 39.683 0 0 1-5.627 1.848c-.068.925-.23 1.826-.386 2.697l-.086.479-.142.53c-.24.871-.487 1.766-.825 2.626a35.383 35.383 0 0 1 4.135 4.471l.264.337-.184.386c-.434.917-.984 1.76-1.516 2.575l-.571.88-.474-.114a40.526 40.526 0 0 1-5.651-1.825 20.121 20.121 0 0 1-2.289 2.306c-.823.752-1.765 1.414-2.588 1.967.403 2.01.648 4.051.729 6.068l.018.474-.434.189c-.255.109-.507.225-.759.34l-.121.055c-.756.347-1.538.705-2.378.956l-.434.13-.291-.347c-1.396-1.666-2.511-3.188-3.501-4.781-.993.237-2.036.41-3.186.526a36.77 36.77 0 0 1-2.232.089c-.371 0-.712-.011-1.04-.032a35.712 35.712 0 0 1-2.97 5.316l-.243.358-.428-.063c-.47-.067-.955-.158-1.481-.277a30.22 30.22 0 0 1-1.965-.527l-.452-.136-.038-.472a40.588 40.588 0 0 1-.022-5.932c-1.022-.412-1.965-.936-2.878-1.442a24.084 24.084 0 0 1-2.692-1.884c-1.661.949-3.419 1.761-5.528 2.553l-.417.157-.313-.317c-.796-.799-1.504-1.674-2.189-2.521l-.425-.524.262-.419a44.407 44.407 0 0 1 3.478-4.82c-.524-.888-1.063-1.852-1.483-2.894a20.018 20.018 0 0 1-1.069-3.072c-2.098-.239-4.164-.648-5.98-1.183l-.423-.125-.065-.437c-.2-1.341-.292-2.468-.292-3.55v-.462l.426-.177a39.792 39.792 0 0 1 5.629-1.848c.067-.923.229-1.823.385-2.694l.085-.482.146-.535c.237-.862.482-1.752.822-2.621a35.171 35.171 0 0 1-4.134-4.472l-.264-.336.183-.386c.439-.927.99-1.77 1.523-2.586l.565-.869.473.114a40.562 40.562 0 0 1 5.651 1.826 20.138 20.138 0 0 1 2.29-2.307c.827-.754 1.768-1.416 2.588-1.966a38.848 38.848 0 0 1-.729-6.069l-.02-.474.436-.188c.294-.128.586-.261.877-.395.767-.351 1.547-.709 2.38-.958l.434-.13.292.348c1.395 1.667 2.509 3.188 3.501 4.781.992-.237 2.036-.41 3.185-.527a37.684 37.684 0 0 1 2.226-.087c.372 0 .715.01 1.046.032a35.847 35.847 0 0 1 2.971-5.317l.243-.358zm.656 1.499a34.356 34.356 0 0 0-2.806 5.184l-.202.465-.505-.054a13.079 13.079 0 0 0-1.405-.069c-.712 0-1.424.043-2.113.084a22.036 22.036 0 0 0-3.442.61l-.5.132-.268-.441c-.948-1.574-2.013-3.065-3.347-4.687-.591.209-1.163.471-1.768.748l-.47.215c.102 1.944.362 3.904.772 5.828l.1.46-.394.261c-.95.63-1.952 1.312-2.827 2.11a19.274 19.274 0 0 0-2.457 2.536l-.324.401-.475-.197a40.167 40.167 0 0 0-5.445-1.835l-.031.048c-.436.668-.879 1.343-1.244 2.044a33.634 33.634 0 0 0 4.059 4.275l.38.335-.204.464c-.404.914-.68 1.918-.947 2.888l-.133.481-.072.421c-.178.996-.362 2.023-.392 3.024l-.016.532-.518.119a38.156 38.156 0 0 0-5.486 1.727c.019.745.087 1.546.209 2.442 1.795.499 3.742.856 5.788 1.064l.485.05.115.477a19.063 19.063 0 0 0 1.115 3.328c.45 1.111 1.061 2.165 1.65 3.15l.254.425-.322.378a42.478 42.478 0 0 0-3.412 4.62 33.7 33.7 0 0 0 1.586 1.851c2.012-.777 3.701-1.582 5.309-2.533l.424-.251.375.319c.841.72 1.78 1.392 2.866 2.054.999.554 2.037 1.13 3.143 1.524l.5.176-.043.531a39.627 39.627 0 0 0-.051 5.758c.925.266 1.623.43 2.366.558a34.252 34.252 0 0 0 2.807-5.182l.202-.466.504.054c.428.046.885.069 1.398.069.699 0 1.406-.043 2.089-.083a21.801 21.801 0 0 0 3.473-.612l.5-.133.267.444c.952 1.577 2.018 3.069 3.349 4.685.587-.208 1.157-.469 1.759-.745.165-.076.322-.148.479-.218a37.7 37.7 0 0 0-.772-5.828l-.099-.46.392-.26c.955-.634 1.961-1.32 2.827-2.111a19.128 19.128 0 0 0 2.456-2.536l.324-.401.477.197a40.455 40.455 0 0 0 5.445 1.836l.035-.055c.431-.659.874-1.339 1.24-2.038a33.567 33.567 0 0 0-4.059-4.275l-.381-.335.205-.464c.405-.918.681-1.923.949-2.896l.13-.474.072-.414c.179-.998.362-2.025.393-3.03l.016-.531.517-.12a38.356 38.356 0 0 0 5.487-1.726 22.972 22.972 0 0 0-.209-2.443c-1.811-.505-3.705-.853-5.788-1.065l-.489-.049-.113-.478a18.87 18.87 0 0 0-1.114-3.328c-.45-1.112-1.061-2.165-1.65-3.148l-.254-.427.321-.378a42.658 42.658 0 0 0 3.415-4.619 33.414 33.414 0 0 0-1.587-1.849c-2.009.773-3.698 1.578-5.31 2.531l-.423.251-.375-.319a22.137 22.137 0 0 0-2.867-2.054c-1.001-.556-2.04-1.132-3.141-1.523l-.501-.176.043-.531c.157-1.953.174-3.89.05-5.758a20.352 20.352 0 0 0-2.366-.559zM277.359 31.294l.186.416c.375.844.71 1.703.994 2.554.337 0 .703.027 1.124.096l.988.122c.446-.874.927-1.695 1.429-2.44l.304-.455.512.195c.368.14.751.258 1.123.372.863.267 1.752.543 2.565 1.076l.369.244-.067.439a28.222 28.222 0 0 1-.554 2.726c.315.17.665.364.963.682l.711.621a27.204 27.204 0 0 1 2.529-1.294l.506-.224.329.446c.212.291.445.58.67.859l.04.049c.569.706 1.158 1.436 1.581 2.294l.206.418-.31.348a29.183 29.183 0 0 1-1.944 1.997c.171.319.347.651.442 1.052l.268.947a30.58 30.58 0 0 1 2.828.274l.552.08.037.558c.025.367.061.736.097 1.103.089.922.18 1.869.105 2.821l-.039.482-.465.129c-.901.25-1.823.461-2.739.623l-.128 1.036-.342 1.034a29.872 29.872 0 0 1 2.202 1.747l.364.317-.172.452c-.345.899-.837 1.712-1.311 2.499-.192.318-.381.633-.561.952l-.275.486-.531-.166a29.057 29.057 0 0 1-2.671-.975l-.666.759c-.241.3-.541.523-.835.737.332.847.633 1.735.893 2.643l.13.448-.366.287c-.757.595-1.606 1-2.428 1.393l-.078.038c-.295.141-.63.301-.941.466l-.488.259-.358-.419a26.295 26.295 0 0 1-1.724-2.262l-.973.275c-.347.137-.746.16-1.1.178a29.095 29.095 0 0 1-.674 2.696l-.128.424-.439.061a5.855 5.855 0 0 1-.823.054c-.677 0-1.331-.097-1.963-.193l-.06-.008c-.376-.055-.746-.11-1.106-.141l-.544-.046-.078-.541a23.282 23.282 0 0 1-.239-2.818l-.969-.326a6.145 6.145 0 0 1-1.03-.391 28.049 28.049 0 0 1-1.997 1.871l-.346.295-.408-.203c-1.146-.571-2.072-1.404-2.968-2.207l-.609-.545.219-.466a26.96 26.96 0 0 1 1.296-2.47l-.835-1.083c-.154-.197-.307-.392-.445-.61a28.55 28.55 0 0 1-2.689.492l-.455.061-.232-.398c-.679-1.167-1.041-2.443-1.383-3.758l-.127-.487.425-.27a27.082 27.082 0 0 1 2.415-1.379l-.081-1.04c-.003-.196-.02-.349-.037-.511a6.239 6.239 0 0 1-.046-.571 27.846 27.846 0 0 1-2.517-1.046l-.424-.202.031-.469c.089-1.348.389-2.67.889-3.927l.175-.437.47.002a28.62 28.62 0 0 1 2.72.147c.089-.176.188-.338.277-.482.091-.145.176-.281.242-.416l.544-.943a27.735 27.735 0 0 1-1.585-2.287l-.268-.428.325-.385c.877-1.04 1.755-2.035 2.868-2.794l.38-.259.386.254a28.806 28.806 0 0 1 2.212 1.606c.231-.144.467-.261.679-.365l1.204-.609a27.003 27.003 0 0 1-.102-2.787l.003-.514.798-.234c1.155-.338 2.341-.685 3.612-.705l.456-.006zm-.886 1.412c-.899.077-1.765.325-2.605.571.006.977.051 1.778.145 2.586l.056.48L272 37.388c-.32.158-.621.306-.846.513l-.446.406-.462-.387a27.134 27.134 0 0 0-2.111-1.592c-.701.543-1.322 1.222-1.888 1.883.501.773.996 1.46 1.512 2.1l.298.369-.993 1.72a5.096 5.096 0 0 1-.27.469c-.156.253-.294.475-.342.683l-.141.605-.615-.076a27.035 27.035 0 0 0-2.617-.19 11.557 11.557 0 0 0-.587 2.594c.794.361 1.616.683 2.442.962l.583.197-.13.604c-.045.211-.017.469.012.742.023.207.044.41.046.611l.152 1.935-.429.205c-.743.354-1.485.76-2.268 1.239.227.842.495 1.723.891 2.516.877-.134 1.749-.31 2.593-.523l.583-.149.225.559c.112.278.317.538.533.815l1.429 1.853-.26.41a22.624 22.624 0 0 0-1.246 2.267c.624.56 1.327 1.182 2.105 1.64a26.395 26.395 0 0 0 1.904-1.851l.402-.432.489.331c.307.207.671.366 1.181.514l1.924.647.004.493c.007.89.062 1.762.162 2.595.232.029.465.063.697.099.709.104 1.335.201 1.96.173.247-.875.45-1.756.607-2.62l.088-.492.495-.07c.19-.026.375-.037.58-.047.283-.015.549-.028.761-.109l1.994-.566.277.419a27.782 27.782 0 0 0 1.559 2.129c.18-.089.361-.175.543-.262l.027-.013c.645-.309 1.253-.599 1.797-.962a28.13 28.13 0 0 0-.904-2.524l-.193-.464.383-.328c.143-.121.298-.235.457-.353.235-.172.456-.335.606-.521l1.351-1.539.462.205c.798.353 1.627.674 2.466.952a28.5 28.5 0 0 1 .265-.44l.033-.056c.36-.597.732-1.214 1.017-1.837a27.954 27.954 0 0 0-2.127-1.626l-.428-.297.631-1.882.233-1.928.514-.081a27.986 27.986 0 0 0 2.618-.547c.013-.694-.057-1.406-.125-2.095l-.011-.106-.044-.474a28.63 28.63 0 0 0-2.636-.206l-.505-.017-.546-1.944c-.063-.259-.192-.5-.329-.755-.091-.173-.181-.344-.261-.522l-.204-.46.374-.336a27.627 27.627 0 0 0 1.902-1.884c-.331-.559-.749-1.076-1.189-1.623l-.064-.079a30.544 30.544 0 0 1-.349-.439c-.748.354-1.529.773-2.322 1.247l-.431.257-1.51-1.329c-.2-.208-.437-.336-.687-.471-.157-.086-.333-.181-.501-.292l-.419-.277.134-.485c.234-.848.43-1.731.583-2.625-.556-.292-1.174-.484-1.828-.685l-.028-.01a26.882 26.882 0 0 1-.659-.208 23.47 23.47 0 0 0-1.263 2.272l-.216.443-1.988-.246c-.567-.094-.936-.108-1.314-.051l-.585.088-.176-.566a26.848 26.848 0 0 0-.918-2.494zM229.881 2.902l.389.095c2.429.592 4.525 1.358 6.411 2.343l.371.195v.419a32.528 32.528 0 0 1-1.377 9.232c1.065.858 1.892 1.65 2.597 2.486.875 1.029 1.559 1.994 2.089 2.945 3.041-.321 6.23-.12 9.356.592l.621.145.12.371c.66 2.045 1.069 4.319 1.216 6.761l.026.429-.372.212a31.877 31.877 0 0 1-8.679 3.413c-.156 1.083-.426 2.222-.827 3.479-.468 1.261-.965 2.341-1.519 3.302 1.855 2.567 3.281 5.484 4.238 8.671l.115.384-.275.292c-1.686 1.784-3.453 3.268-5.251 4.41l-.356.227-.364-.216c-2.774-1.645-5.219-3.604-7.27-5.824-.997.416-2.122.747-3.436 1.013-1.076.221-2.221.332-3.599.347-1.306 2.903-3.117 5.597-5.386 8.009l-.275.293-.389-.094c-2.429-.591-4.526-1.358-6.411-2.344l-.371-.192-.001-.422a32.521 32.521 0 0 1 1.378-9.23c-1.063-.856-1.89-1.647-2.599-2.486-.873-1.03-1.556-1.993-2.087-2.946-3.052.318-6.24.117-9.357-.591l-.621-.146-.12-.37c-.659-2.049-1.069-4.324-1.216-6.762l-.026-.428.373-.214a31.97 31.97 0 0 1 8.677-3.412c.157-1.084.428-2.223.829-3.478.471-1.268.968-2.348 1.518-3.302-1.855-2.566-3.281-5.483-4.237-8.672l-.115-.383.274-.291c1.684-1.784 3.451-3.269 5.251-4.411l.357-.227.363.215c2.773 1.644 5.219 3.603 7.272 5.824.996-.415 2.121-.746 3.435-1.013 1.079-.222 2.224-.332 3.598-.347 1.303-2.899 3.115-5.593 5.387-8.01l.275-.293zm.456 1.537c-2.141 2.339-3.835 4.939-5.034 7.729l-.179.421-.594-.002c-1.416 0-2.571.101-3.635.32-1.415.287-2.592.653-3.597 1.117l-.464.216-.338-.382c-1.938-2.168-4.266-4.088-6.919-5.708-1.483.985-2.946 2.22-4.354 3.674.956 3.038 2.362 5.807 4.178 8.231l.283.378-.249.401c-.598.971-1.131 2.092-1.629 3.428-.424 1.337-.695 2.542-.824 3.677l-.057.494-.484.104a30.444 30.444 0 0 0-8.385 3.155c.15 2.01.488 3.899 1.006 5.615 3.081.684 6.224.848 9.206.48l.479-.058.219.431c.505.989 1.204 2.004 2.137 3.104.722.854 1.601 1.676 2.769 2.589l.38.296-.146.46a31.11 31.11 0 0 0-1.451 8.846c1.591.793 3.337 1.427 5.334 1.937 2.14-2.341 3.833-4.941 5.033-7.731l.178-.42.585.003c1.42 0 2.579-.102 3.644-.321 1.409-.285 2.587-.651 3.598-1.118l.463-.214.339.381c1.935 2.166 4.262 4.087 6.918 5.708 1.483-.984 2.948-2.22 4.354-3.673-.957-3.039-2.362-5.808-4.177-8.231l-.283-.378.248-.401c.601-.976 1.134-2.098 1.628-3.43.426-1.336.696-2.539.825-3.675l.056-.495.485-.103a30.383 30.383 0 0 0 8.385-3.156c-.15-2.012-.488-3.9-1.006-5.615-3.082-.684-6.225-.847-9.206-.481l-.479.06-.219-.431c-.504-.989-1.203-2.004-2.138-3.105-.72-.854-1.6-1.676-2.768-2.589l-.38-.296.147-.459a31.121 31.121 0 0 0 1.45-8.847c-1.587-.79-3.333-1.425-5.332-1.936zM48.938 51.319l.193.448c1.114 2.577 2.023 4.984 2.777 7.357.855.009 1.77.049 2.791.125.952.085 1.883.172 2.809.31a66.18 66.18 0 0 1 4.386-6.765l.269-.364.44.101c1.679.388 3.047.766 4.305 1.187l.447.15.023.473c.12 2.569.102 5.217-.056 7.868a39.02 39.02 0 0 1 2.559 1.135c.762.36 1.559.777 2.503 1.308a66.652 66.652 0 0 1 6.538-4.711l.379-.239.371.249a51.357 51.357 0 0 1 3.575 2.654l.378.304-.156.459a76.432 76.432 0 0 1-2.895 7.313c.662.618 1.291 1.266 1.901 1.894l.355.388c.5.554 1.064 1.182 1.585 1.823 2.432-.802 4.983-1.47 7.794-2.043l.45-.092.259.381a56.042 56.042 0 0 1 2.37 3.768l.238.416-.306.369a76.472 76.472 0 0 1-5.331 5.783c.335.708.779 1.654 1.134 2.575.364.852.665 1.737.965 2.644 2.712.15 5.404.465 8.003.934l.438.078.108.434a45.18 45.18 0 0 1 .856 4.387l.07.476-.419.232a75.408 75.408 0 0 1-7.055 3.445c.057.686.081 1.377.103 1.989l.024 1.639-.001.059c-.006.631-.011 1.281-.049 1.94a66.957 66.957 0 0 1 7.129 3.747l.393.236-.065.453c-.167 1.198-.407 2.779-.78 4.397l-.105.461-.47.067a74.203 74.203 0 0 1-7.83.676c-.261.872-.546 1.794-.892 2.671-.326.921-.73 1.849-1.062 2.603a66.73 66.73 0 0 1 5.285 6.09l.271.356-.213.394c-.641 1.189-1.375 2.4-2.31 3.814l-.266.402-.469-.111a75.584 75.584 0 0 1-7.536-2.215c-.504.656-1.035 1.28-1.549 1.885l-.317.365c-.6.653-1.216 1.325-1.861 1.959 1.021 2.353 1.92 4.835 2.746 7.585l.132.436-.35.293a55.165 55.165 0 0 1-3.522 2.72l-.393.278-.398-.275a77.124 77.124 0 0 1-6.237-4.785 38.92 38.92 0 0 1-2.447 1.368c-.868.449-1.724.858-2.546 1.213a65.94 65.94 0 0 1-.183 8.068l-.037.45-.429.144c-1.633.557-2.994.958-4.285 1.26l-.459.108-.267-.392a74.347 74.347 0 0 1-4.079-6.72 46.62 46.62 0 0 1-2.764.383 43.234 43.234 0 0 1-2.821.206c-.826 2.42-1.83 4.861-3.069 7.46l-.199.415-.458-.023c-1.734-.085-3.141-.203-4.428-.372l-.473-.063-.109-.465a75.741 75.741 0 0 1-1.398-7.747l-.044-.009c-.834-.174-1.78-.372-2.691-.634-.901-.224-1.809-.526-2.687-.82a66.354 66.354 0 0 1-5.564 5.838l-.328.302-.409-.174c-1.219-.516-2.531-1.156-4.01-1.956l-.421-.231.065-.475c.383-2.68.875-5.206 1.507-7.72a49.604 49.604 0 0 1-2.066-1.41l-.234-.167a49.253 49.253 0 0 1-2.226-1.757 67.12 67.12 0 0 1-7.286 3.434l-.42.169-.322-.318a56.735 56.735 0 0 1-3.027-3.258l-.319-.37.239-.422a78.217 78.217 0 0 1 4.183-6.664 42.402 42.402 0 0 1-1.584-2.31l-.13-.21a44.881 44.881 0 0 1-1.314-2.22 66.361 66.361 0 0 1-8.032.567l-.456.006-.183-.419c-.697-1.578-1.219-2.897-1.644-4.152l-.152-.449.364-.304a74.17 74.17 0 0 1 6.306-4.699c-.234-.876-.473-1.806-.641-2.739a39.757 39.757 0 0 1-.463-2.776 68.048 68.048 0 0 1-7.692-2.388l-.42-.157-.025-.45c-.074-1.297-.089-2.668-.048-4.444l.011-.487.462-.154a78.883 78.883 0 0 1 7.574-2.103c.117-1.064.224-1.907.384-2.782.142-.935.357-1.877.567-2.763a65.857 65.857 0 0 1-6.319-5.01l-.331-.297.135-.426c.437-1.37.967-2.778 1.577-4.186l.189-.438.476.022a73.8 73.8 0 0 1 7.81.787c.395-.782.833-1.534 1.256-2.261l.105-.18a42.162 42.162 0 0 1 1.537-2.383 67.922 67.922 0 0 1-4.08-6.954l-.205-.401.285-.35a54.742 54.742 0 0 1 2.959-3.321l.338-.351.443.199a76.785 76.785 0 0 1 7.005 3.561 48.76 48.76 0 0 1 2.145-1.791l.276-.207a43.52 43.52 0 0 1 2.012-1.458 67.38 67.38 0 0 1-1.31-7.964l-.047-.455.399-.222c1.509-.838 2.77-1.48 3.969-2.02l.433-.196.337.336a74.98 74.98 0 0 1 5.255 5.854c.86-.314 1.749-.638 2.664-.894.855-.274 1.752-.488 2.62-.695l.096-.023a67.36 67.36 0 0 1 1.669-7.894l.119-.428.439-.07c1.554-.242 3.11-.365 4.426-.451l.486-.034zm-.881 1.446c-.941.067-2.153.166-3.378.341a66.408 66.408 0 0 0-1.583 7.754l-.066.462-.995.239c-.844.201-1.715.409-2.556.678-.899.251-1.759.566-2.591.87l-.927.335-.309-.386a74.425 74.425 0 0 0-5.124-5.785c-.932.434-1.9.928-3.032 1.549a64.888 64.888 0 0 0 1.341 7.807l.114.479-.415.264c-.815.519-1.602 1.113-2.364 1.687l-.235.176a41.318 41.318 0 0 0-2.428 2.056l-.376.347-.441-.259a74.535 74.535 0 0 0-6.867-3.547 52.235 52.235 0 0 0-2.264 2.536 66.38 66.38 0 0 0 4.052 6.798l.272.398-.28.393a40.407 40.407 0 0 0-1.749 2.678l-.094.159c-.5.86-1.012 1.741-1.437 2.637l-.221.469-.513-.084a72.474 72.474 0 0 0-7.681-.825 43.877 43.877 0 0 0-1.201 3.19 64.533 64.533 0 0 0 6.232 4.87l.39.27-.11.461c-.259 1.087-.503 2.115-.657 3.13-.188 1.026-.304 2.054-.426 3.195l-.053.497-.489.105a76.727 76.727 0 0 0-7.454 2.02 53.85 53.85 0 0 0 .033 3.396 66.898 66.898 0 0 0 7.563 2.29l.46.11.063.47c.126.924.282 2.075.512 3.16.185 1.023.454 2.031.715 3.004l.129.483-.34.365a76.13 76.13 0 0 0-6.271 4.613c.341.969.743 1.981 1.259 3.173a64.468 64.468 0 0 0 7.882-.616l.487-.067.223.438c.456.893.99 1.753 1.507 2.587l.106.17c.572.898 1.185 1.78 1.819 2.62l.308.406-.296.414a74.997 74.997 0 0 0-4.155 6.525c.822.937 1.58 1.753 2.312 2.492a64.822 64.822 0 0 0 7.13-3.422l.424-.237.366.321a45.053 45.053 0 0 0 2.5 1.999l.198.14c.792.562 1.606 1.14 2.436 1.637l.444.266-.129.501a72.15 72.15 0 0 0-1.533 7.586 44.56 44.56 0 0 0 3.057 1.495 65.13 65.13 0 0 0 5.417-5.762l.301-.361.884.293c.855.285 1.738.58 2.617.799.876.255 1.699.426 2.571.606l1.053.224.06.49a75.91 75.91 0 0 0 1.323 7.621c1.011.119 2.091.209 3.386.28 1.199-2.551 2.169-4.954 2.961-7.343l.155-.464.486-.011a38.773 38.773 0 0 0 3.185-.209c1.118-.132 2.129-.256 3.151-.461l.504-.1.24.455a73.642 73.642 0 0 0 3.97 6.642c1-.249 2.043-.558 3.268-.966.202-2.636.244-5.298.122-7.916l-.023-.484.448-.186a37.637 37.637 0 0 0 2.89-1.356 40.57 40.57 0 0 0 2.788-1.577l.429-.262.38.329a75.28 75.28 0 0 0 6.104 4.743 53.346 53.346 0 0 0 2.69-2.076c-.825-2.691-1.723-5.122-2.747-7.429l-.199-.447.355-.336c.755-.716 1.491-1.517 2.142-2.225l.28-.324c.577-.678 1.231-1.447 1.803-2.226l.305-.416.484.176a73.43 73.43 0 0 0 7.398 2.228 46.21 46.21 0 0 0 1.768-2.911 66.353 66.353 0 0 0-5.225-5.937l-.33-.334.273-.622c.378-.86.803-1.83 1.136-2.772.383-.973.679-1.965.966-2.924l.183-.612.498-.015a73.76 73.76 0 0 0 7.701-.613 48.88 48.88 0 0 0 .59-3.361 64.904 64.904 0 0 0-7.025-3.627l-.452-.197.042-.495c.066-.794.072-1.638.079-2.382l-.022-1.586c-.03-.795-.059-1.612-.146-2.401l-.059-.515.48-.2a73.428 73.428 0 0 0 6.966-3.343 43.649 43.649 0 0 0-.649-3.346 64.768 64.768 0 0 0-7.857-.86l-.474-.024-.196-.592c-.315-.956-.641-1.943-1.033-2.865-.361-.932-.788-1.836-1.2-2.71l-.326-.688.356-.346a75.824 75.824 0 0 0 5.275-5.648 55.256 55.256 0 0 0-1.817-2.88c-2.752.576-5.25 1.25-7.637 2.059l-.465.158-.301-.388c-.573-.738-1.217-1.455-1.839-2.147l-.274-.302c-.758-.78-1.478-1.521-2.243-2.205l-.383-.343.218-.466a73.462 73.462 0 0 0 2.895-7.175 49.62 49.62 0 0 0-2.729-2.029 65.774 65.774 0 0 0-6.382 4.667l-.368.304-.414-.236a41.671 41.671 0 0 0-2.826-1.498 38.17 38.17 0 0 0-2.931-1.276l-.476-.181.034-.51a73.52 73.52 0 0 0 .107-7.742 45.162 45.162 0 0 0-3.285-.899 64.95 64.95 0 0 0-4.257 6.671l-.238.429-.482-.083c-1.019-.174-2.039-.272-3.172-.372a40.104 40.104 0 0 0-2.972-.121l-.72.004-.152-.49a74.482 74.482 0 0 0-2.685-7.255zM255.856 75.076l.445.028c1.642.105 3.011.207 4.423.498l.448.094.088.448c.546 2.736.868 5.11 1.013 7.464.155.043.311.086.465.127l.071.02c.657.175 1.337.356 2 .624.308.13.612.247.916.362l.077.03c.484.184.97.368 1.452.593a50.282 50.282 0 0 1 5.961-4.91l.386-.269.392.262a49.6 49.6 0 0 0 1.024.66l.104.065c.862.544 1.741 1.1 2.544 1.775l.343.29-.125.433a56.362 56.362 0 0 1-2.562 7.082c.14.136.281.27.422.405.489.469.986.943 1.444 1.449.229.28.447.53.664.78l.04.047c.344.397.688.793 1.009 1.209a51.132 51.132 0 0 1 7.555-1.569l.467-.059.225.415c.205.374.419.744.633 1.114l.029.05c.507.873 1.032 1.776 1.427 2.751l.168.416-.311.324c-1.853 1.923-3.668 3.587-5.548 5.084l.185.543c.221.643.447 1.303.615 1.973.066.323.138.622.208.918l.033.135c.123.51.245 1.017.335 1.54a51.348 51.348 0 0 1 7.419 2.132l.442.166.006.472c.006.445.024.891.043 1.337.041 1.008.083 2.052-.013 3.109l-.043.45-.428.141a57.762 57.762 0 0 1-7.269 1.906l-.444 2.556-.724 2.593a52.678 52.678 0 0 1 5.588 5.342l.3.334-.181.409c-.548 1.244-1.194 2.456-1.821 3.626l-.407.759-.487-.081a59.473 59.473 0 0 1-3.481-.682 57.324 57.324 0 0 1-3.847-1.016c-.298.417-.618.813-.928 1.195-.243.298-.465.572-.677.851-.45.546-.923 1.027-1.381 1.493l-.03.031-.43.439c.964 2.265 1.769 4.666 2.461 7.339l.11.43-.345.28c-.962.779-1.985 1.472-2.975 2.144l-1.026.7-.395-.302a59.222 59.222 0 0 1-5.7-4.918c-.473.239-.963.45-1.397.638-.331.144-.653.282-.969.431-.68.278-1.358.499-1.956.695l-.581.193c-.2 2.486-.599 4.987-1.22 7.644l-.101.437-.438.085c-1.27.247-2.555.392-3.799.533l-1.069.122-.212-.449a58.698 58.698 0 0 1-2.763-7.01c-.522-.006-1.031-.05-1.524-.091a24.334 24.334 0 0 0-1.069-.078c-.737-.048-1.445-.181-2.07-.299l-.166-.031c-.14-.026-.279-.052-.418-.076-1.262 2.029-2.732 3.999-4.618 6.196l-.277.321-.41-.1c-1.068-.261-2.075-.668-3.049-1.062a39.293 39.293 0 0 0-1.128-.447l-.46-.176.015-.493c.072-2.339.338-4.858.795-7.491-.758-.395-1.462-.859-2.144-1.308l-.103-.065c-.76-.453-1.484-1.035-2.122-1.549l-.026-.02c-2.136 1.25-4.417 2.338-6.971 3.323l-.396.155-.315-.286c-.937-.854-1.75-1.819-2.538-2.753l-.767-.905.237-.421c1.156-2.044 2.564-4.147 4.188-6.255-.487-.707-.898-1.446-1.296-2.163-.495-.81-.838-1.591-1.17-2.346l-.061-.138c-.665.031-1.347.048-2.029.048-1.82 0-3.68-.11-5.685-.337l-.423-.047-.147-.401c-.419-1.131-.679-2.3-.931-3.43l-.309-1.35.408-.265c1.956-1.267 4.178-2.477 6.605-3.596-.108-.889-.127-1.793-.142-2.594-.063-.943.004-1.875.066-2.703a47.454 47.454 0 0 1-6.687-3.854l-.354-.242.063-.427c.184-1.284.495-2.622 1.008-4.339l.135-.449.466-.042a53.92 53.92 0 0 1 7.519-.114c.293-.761.629-1.615 1.092-2.435.361-.721.772-1.541 1.264-2.309-1.611-2.146-3.002-4.339-4.134-6.522l-.205-.39.27-.35c.742-.967 1.745-2.225 2.921-3.371l.33-.321.421.179a52.921 52.921 0 0 1 6.707 3.408l.096-.081c.592-.511 1.264-1.089 2-1.562.732-.522 1.429-1.018 2.189-1.453a47.594 47.594 0 0 1-.645-7.694v-.439l.397-.186c1.496-.705 2.853-1.239 4.146-1.631l.439-.133.292.355a52.542 52.542 0 0 1 4.369 6.134c.844-.198 1.717-.402 2.62-.482l.071-.01c.794-.108 1.672-.228 2.545-.257.852-2.556 1.865-4.947 3.01-7.111l.208-.394zm.804 1.437c-1.093 2.125-2.057 4.468-2.864 6.966l-.157.484-.604-.006c-.912 0-1.85.128-2.756.251l-.103.014c-.832.074-1.611.255-2.437.449l-1.003.23-.258-.43a50.81 50.81 0 0 0-4.215-6.035c-.987.32-2.01.726-3.123 1.236.025 2.412.262 4.937.706 7.506l.086.499-.448.233c-.843.436-1.645 1.006-2.419 1.556l-.096.068c-.656.421-1.236.92-1.85 1.448l-.868.74-.425-.263a51.406 51.406 0 0 0-6.526-3.391 30.098 30.098 0 0 0-2.196 2.55c1.128 2.117 2.507 4.243 4.099 6.323l.307.403-.289.415c-.554.79-1.004 1.682-1.438 2.544-.462.825-.773 1.628-1.102 2.478l-.307.794-.505-.034a52.056 52.056 0 0 0-7.348.045c-.361 1.25-.606 2.292-.766 3.262a45.517 45.517 0 0 0 6.558 3.696l.438.201-.062.815c-.066.873-.134 1.775-.076 2.635.024 1.06.045 2.051.203 2.999l.089.526-.486.22c-2.378 1.072-4.56 2.234-6.491 3.454l.093.41c.213.954.432 1.933.739 2.853 1.782.188 3.442.28 5.073.28.843 0 1.661-.024 2.454-.07l.475-.027.45 1.01c.329.747.639 1.453 1.043 2.109l.058.102c.466.839.947 1.704 1.515 2.459l.32.423-.327.419c-1.606 2.052-3.002 4.096-4.152 6.076l.127.149c.67.797 1.361 1.618 2.119 2.352 2.48-.98 4.694-2.062 6.766-3.308l.411-.247.77.616c.669.537 1.301 1.043 1.995 1.457l.125.082c.787.517 1.6 1.051 2.453 1.45l.482.226-.094.525c-.467 2.562-.752 5.022-.847 7.31l.599.24.08.032c.803.325 1.63.661 2.467.9 1.823-2.149 3.238-4.083 4.45-6.081l.239-.395.454.067c.344.055.68.115 1.079.19.651.123 1.265.238 1.892.278.36.017.736.05 1.099.079l.065.007c.602.049 1.226.103 1.828.077l.53-.023.156.507a57.188 57.188 0 0 0 2.642 6.875l.075-.009c1.07-.119 2.174-.243 3.261-.435a49.17 49.17 0 0 0 1.121-7.445l.032-.454.427-.152c.329-.113.658-.221.986-.329l.102-.033c.605-.2 1.211-.4 1.78-.632.276-.129.585-.265.896-.399l.027-.012.042-.018c.588-.255 1.192-.517 1.743-.825l.456-.254.368.369a57.278 57.278 0 0 0 5.527 4.852l.198-.134c.841-.57 1.711-1.159 2.541-1.804-.69-2.592-1.494-4.922-2.456-7.119l-.182-.417.31-.332c.251-.267.508-.529.765-.79l.028-.029c.435-.444.886-.903 1.286-1.387.204-.269.434-.554.666-.838.426-.523.82-1.008 1.155-1.532l.284-.442.501.156a57.144 57.144 0 0 0 7.147 1.723c.495-.927 1.05-1.967 1.529-3.005a50.83 50.83 0 0 0-5.479-5.149l-.356-.286.954-3.402.594-3.436.473-.085a55.918 55.918 0 0 0 7.118-1.803c.043-.805.01-1.635-.021-2.439l-.002-.038c-.012-.297-.025-.598-.033-.897a49.972 49.972 0 0 0-7.243-2.004l-.487-.098-.063-.495c-.08-.632-.233-1.267-.381-1.88l-.013-.057a36.327 36.327 0 0 1-.233-1.016c-.145-.585-.359-1.206-.565-1.806a41.996 41.996 0 0 1-.352-1.053l-.146-.459.38-.296a54.165 54.165 0 0 0 5.464-4.925c-.338-.745-.756-1.464-1.16-2.16l-.034-.057c-.14-.242-.281-.486-.418-.73a50.116 50.116 0 0 0-7.341 1.596l-.472.141-.287-.402c-.363-.516-.792-1.01-1.206-1.487a43.635 43.635 0 0 1-.719-.843c-.41-.453-.889-.91-1.352-1.353a50.9 50.9 0 0 1-.781-.759l-.34-.339.197-.436a54.389 54.389 0 0 0 2.562-6.901c-.645-.499-1.354-.946-2.039-1.378l-.116-.074a50.717 50.717 0 0 1-.651-.414 49.64 49.64 0 0 0-5.758 4.836l-.36.351-.443-.234c-.547-.289-1.125-.51-1.738-.743l.004-.121-.04.108a29.451 29.451 0 0 1-1.005-.397c-.562-.227-1.156-.386-1.784-.556l-.075-.019c-.348-.094-.685-.185-1.013-.286l-.462-.142-.026-.484c-.118-2.31-.412-4.631-.926-7.299-1.006-.179-2.03-.271-3.337-.358zM331.487 52.723l.426.062c1.063.154 2.03.379 3.447.805l.453.135.036.472c.153 1.923.162 3.919.024 5.934 1.026.412 1.967.935 2.878 1.442a24.198 24.198 0 0 1 2.692 1.882c1.664-.95 3.423-1.762 5.526-2.552l.417-.156.314.316c.786.79 1.49 1.658 2.171 2.497l.443.548-.262.418a43.933 43.933 0 0 1-3.478 4.819c.523.888 1.062 1.853 1.484 2.896a20.14 20.14 0 0 1 1.068 3.072c2.135.243 4.146.641 5.979 1.183l.422.125.065.436c.198 1.319.295 2.481.294 3.551v.463l-.427.176a39.691 39.691 0 0 1-5.628 1.847c-.068.926-.23 1.827-.385 2.698l-.086.479-.142.53c-.24.87-.488 1.766-.825 2.626a35.457 35.457 0 0 1 4.135 4.471l.263.336-.183.387c-.435.916-.985 1.76-1.517 2.574l-.57.881-.475-.114a40.445 40.445 0 0 1-5.651-1.826 20.114 20.114 0 0 1-2.288 2.306c-.823.752-1.766 1.415-2.589 1.967a38.69 38.69 0 0 1 .729 6.069l.019.474-.435.188c-.255.109-.506.225-.759.34l-.121.056c-.756.347-1.538.705-2.377.956l-.435.13-.291-.347c-1.396-1.666-2.51-3.188-3.501-4.782-.992.238-2.035.411-3.186.527-.726.043-1.472.088-2.232.088-.37 0-.712-.01-1.039-.031a35.858 35.858 0 0 1-2.971 5.316l-.242.357-.428-.062a18.444 18.444 0 0 1-1.481-.277 29.323 29.323 0 0 1-1.965-.528l-.453-.135-.037-.472a40.447 40.447 0 0 1-.023-5.932c-1.021-.413-1.965-.936-2.878-1.443a24.082 24.082 0 0 1-2.692-1.883c-1.661.949-3.419 1.761-5.527 2.553l-.417.155-.314-.315c-.795-.8-1.503-1.674-2.189-2.521l-.424-.525.261-.418a44.543 44.543 0 0 1 3.478-4.82c-.524-.888-1.062-1.852-1.483-2.894a19.948 19.948 0 0 1-1.068-3.072c-2.098-.239-4.165-.649-5.981-1.184l-.422-.124-.065-.437c-.201-1.341-.293-2.469-.292-3.55v-.462l.426-.177a39.652 39.652 0 0 1 5.628-1.848c.068-.924.229-1.824.386-2.694l.085-.483.145-.535c.237-.862.483-1.751.823-2.62a35.319 35.319 0 0 1-4.135-4.472l-.264-.336.184-.387c.438-.926.99-1.77 1.523-2.586l.564-.868.474.114a40.73 40.73 0 0 1 5.651 1.825 20.212 20.212 0 0 1 2.289-2.307c.827-.753 1.768-1.415 2.589-1.966a38.838 38.838 0 0 1-.73-6.068l-.019-.475.435-.188a38.4 38.4 0 0 0 .877-.394c.768-.351 1.548-.709 2.38-.958l.434-.131.292.349c1.395 1.666 2.51 3.188 3.501 4.781.992-.237 2.036-.41 3.186-.527.727-.043 1.474-.088 2.226-.088.372 0 .715.011 1.046.033a35.757 35.757 0 0 1 2.971-5.317l.243-.358zm.656 1.498a34.363 34.363 0 0 0-2.806 5.184l-.203.466-.504-.055a13.092 13.092 0 0 0-1.405-.069c-.713 0-1.424.044-2.113.085a22.052 22.052 0 0 0-3.443.609l-.5.133-.267-.442c-.948-1.574-2.013-3.064-3.347-4.686-.592.209-1.164.471-1.768.748-.159.073-.315.145-.471.215.103 1.944.363 3.904.772 5.828l.1.46-.393.261c-.951.63-1.952 1.312-2.828 2.11a19.259 19.259 0 0 0-2.456 2.535l-.324.402-.476-.198a40.4 40.4 0 0 0-5.445-1.835l-.031.049c-.436.668-.878 1.343-1.244 2.044a33.634 33.634 0 0 0 4.059 4.275l.38.335-.204.463c-.403.915-.68 1.919-.946 2.889l-.133.481-.073.42c-.178.997-.361 2.024-.391 3.024l-.017.532-.517.119a38.369 38.369 0 0 0-5.486 1.727c.018.746.087 1.547.209 2.442 1.795.499 3.742.857 5.787 1.065l.486.049.115.478a19.061 19.061 0 0 0 1.114 3.328c.45 1.111 1.062 2.165 1.65 3.15l.254.425-.322.378a42.828 42.828 0 0 0-3.412 4.619 32.97 32.97 0 0 0 1.586 1.851c2.013-.776 3.701-1.582 5.31-2.532l.423-.251.375.319c.842.72 1.78 1.392 2.866 2.053.999.555 2.037 1.131 3.143 1.525l.5.176-.043.53a39.64 39.64 0 0 0-.05 5.759c.925.266 1.622.43 2.365.558a34.22 34.22 0 0 0 2.808-5.183l.202-.466.503.054c.429.047.886.069 1.399.069.699 0 1.405-.042 2.087-.082a21.92 21.92 0 0 0 3.475-.612l.5-.134.267.444c.952 1.578 2.017 3.069 3.348 4.685.588-.207 1.158-.469 1.759-.745l.48-.218a37.705 37.705 0 0 0-.773-5.827l-.099-.46.392-.261c.955-.634 1.961-1.319 2.828-2.11a19.315 19.315 0 0 0 2.456-2.536l.323-.402.477.197a40.222 40.222 0 0 0 5.445 1.836l.036-.054c.43-.659.874-1.339 1.24-2.039a33.564 33.564 0 0 0-4.06-4.274l-.38-.335.205-.465c.404-.917.681-1.922.949-2.895l.129-.474.072-.414c.179-.998.362-2.025.394-3.03l.015-.532.517-.119a38.247 38.247 0 0 0 5.488-1.727 22.95 22.95 0 0 0-.21-2.442c-1.811-.505-3.705-.854-5.787-1.065l-.489-.049-.113-.479a19.053 19.053 0 0 0-1.114-3.327c-.451-1.112-1.062-2.165-1.65-3.148l-.254-.427.321-.378a42.79 42.79 0 0 0 3.415-4.619c-.524-.643-1.04-1.27-1.587-1.85-2.01.774-3.699 1.579-5.31 2.532l-.424.251-.374-.32a22.134 22.134 0 0 0-2.867-2.053c-1.002-.556-2.04-1.132-3.141-1.523l-.502-.177.044-.531a39.34 39.34 0 0 0 .049-5.758 20.808 20.808 0 0 0-2.365-.559z"/><path d="M51.352 67.899C69.936 67.899 85 82.963 85 101.547c0 18.583-15.064 33.648-33.648 33.648-18.583 0-33.648-15.065-33.648-33.648 0-18.584 15.065-33.648 33.648-33.648zm0 1.5c-17.755 0-32.148 14.393-32.148 32.148 0 17.755 14.393 32.148 32.148 32.148 17.755 0 32.148-14.393 32.148-32.148 0-17.755-14.393-32.148-32.148-32.148zM162.274 47.394c20.198 0 36.572 16.374 36.572 36.572 0 20.199-16.374 36.573-36.572 36.573-20.199 0-36.573-16.374-36.573-36.573 0-20.198 16.374-36.572 36.573-36.572zm-.001 1.5c-19.369 0-35.072 15.702-35.072 35.072 0 19.37 15.703 35.073 35.073 35.073s35.072-15.703 35.072-35.073-15.702-35.072-35.072-35.072zM95.612 13.301c8.771 0 15.882 7.11 15.882 15.881 0 8.772-7.111 15.882-15.882 15.882s-15.881-7.11-15.881-15.882c0-8.771 7.11-15.881 15.881-15.881zm0 1.5c-7.943 0-14.381 6.439-14.382 14.381.001 7.943 6.439 14.382 14.382 14.382s14.382-6.439 14.382-14.382c0-7.942-6.439-14.381-14.382-14.381zM224.162 21.595a8.338 8.338 0 1 1-8.338 8.337 8.338 8.338 0 0 1 8.338-8.337zm0 1.5a6.838 6.838 0 1 0 0 13.676 6.838 6.838 0 0 0 0-13.676zM254.011 101.215c6.842 0 12.388 5.546 12.388 12.388s-5.546 12.389-12.388 12.389-12.388-5.547-12.388-12.389 5.546-12.388 12.388-12.388zm0 1.5c-6.014 0-10.888 4.875-10.889 10.888.001 6.014 4.875 10.889 10.889 10.889 6.013 0 10.888-4.875 10.888-10.889 0-6.013-4.875-10.888-10.888-10.888zM327.082 65.355c8.771 0 15.881 7.11 15.881 15.881 0 8.772-7.11 15.882-15.881 15.882-8.772 0-15.882-7.11-15.882-15.882 0-8.771 7.11-15.881 15.882-15.881zm0 1.5c-7.943 0-14.382 6.439-14.382 14.381 0 7.943 6.439 14.382 14.382 14.382 7.942 0 14.381-6.439 14.381-14.382 0-7.942-6.439-14.381-14.381-14.381zM278.506 37.356c6.224 0 11.27 5.045 11.27 11.269s-5.046 11.27-11.27 11.27c-6.224 0-11.269-5.046-11.269-11.27 0-6.224 5.045-11.269 11.269-11.269zm0 1.5c-5.395 0-9.769 4.374-9.769 9.769 0 5.396 4.374 9.77 9.769 9.77 5.396 0 9.77-4.374 9.77-9.77 0-5.395-4.374-9.769-9.77-9.769z"/></g></svg>